<?xml version="1.0" standalone="no"?>
<!DOCTYPE svg PUBLIC "-//W3C//DTD SVG 1.1//EN" "http://www.w3.org/Graphics/SVG/1.1/DTD/svg11.dtd" >
<svg xmlns="http://www.w3.org/2000/svg" xmlns:xlink="http://www.w3.org/1999/xlink" version="1.1">
<metadata>
Created by FontForge 20170731 at Wed Jul 14 12:18:42 1999
 By Aleksey,,,
1.01  Verona Script  Copr.1993    By Richard William Mueller
</metadata>
<defs>
<font id="VeronaScript" horiz-adv-x="382" >
  <font-face 
    font-family="Verona"
    font-weight="400"
    font-stretch="normal"
    units-per-em="1000"
    panose-1="0 0 4 0 0 0 0 0 0 0"
    ascent="800"
    descent="-200"
    x-height="315"
    cap-height="636"
    bbox="-16 -238 1197 890"
    underline-thickness="20"
    underline-position="-163"
    unicode-range="U+0020-F002"
  />
<missing-glyph horiz-adv-x="500" 
d="M63 0v750h375v-750h-375zM125 63h250v625h-250v-625z" />
    <glyph glyph-name=".notdef" horiz-adv-x="500" 
d="M63 0v750h375v-750h-375zM125 63h250v625h-250v-625z" />
    <glyph glyph-name="glyph1" horiz-adv-x="0" 
 />
    <glyph glyph-name="nonmarkingreturn" horiz-adv-x="240" 
 />
    <glyph glyph-name="space" unicode=" " horiz-adv-x="240" 
 />
    <glyph glyph-name="exclam" unicode="!" horiz-adv-x="218" 
d="M187 528q0 -53 -36.5 -161t-36.5 -164q0 -26 5 -50q1 -6 -12.5 -14.5t-26.5 -8.5q-17 0 -19 17q-18 37 -18 86q0 9 10 127q9 101 34 267q5 10 10.5 20t14.5 14q32 4 53.5 -40t21.5 -93zM139 79q10 -15 10 -35q0 -25 -16 -41.5t-39 -16.5t-38 17.5t-15 41.5q0 18 9 33
q12 25 42 25q31 0 47 -24z" />
    <glyph glyph-name="quotedbl" unicode="&#x22;" horiz-adv-x="328" 
d="M252 566q-12 -94 -33 -94q-25 0 -25 61q0 20 -2.5 52t-2.5 45q0 31 10 53q4 8 21 18t29 10q22 0 22 -34q0 -14 -7 -48q-9 -42 -12 -63zM128 566q-13 -94 -32 -94q-26 0 -26 61q0 20 -3 52t-3 45q0 31 11 53q4 9 21 19t30 10q22 0 22 -34q0 -15 -7 -48q-10 -43 -13 -64z
" />
    <glyph glyph-name="numbersign" unicode="#" horiz-adv-x="360" 
d="M158 415q-2 -19 -8 -56q19 -4 54 -11q1 29 6 60q-17 3 -52 7zM108 478q2 27 4 48q2 14 9.5 29.5t14.5 15.5q3 -1 4 -2q31 -40 31 -65q0 -8 -6 -36q23 -4 49 -11l6 69q2 14 10 29.5t15 15.5q2 0 4 -2q31 -41 31 -65q0 -9 -4 -27q-5 -23 -7 -39q19 -6 52 -18q9 -3 9 -12
q0 -8 -7.5 -14t-18.5 -3q-12 4 -39 9q-6 -48 -11 -68q24 -9 67 -25q8 -3 8 -12q0 -17 -18 -17q-11 0 -32 6q-26 7 -34 8q-6 -23 -34 -124q-3 -11 -11 -11q-9 0 -15 10t-3 25q10 50 17 106q-19 3 -60 7q-14 -50 -37 -137q-2 -11 -11 -11q-18 0 -18 25q0 23 7 64q11 55 12 65
l-39 3q-10 1 -21 9t-11 16q0 2 1 4q29 29 51 29q6 0 24 -3q2 18 6 52q-30 3 -50 6q-10 1 -21 9t-11 14q0 3 1 4q30 31 51 31q5 0 35 -7z" />
    <glyph glyph-name="dollar" unicode="$" horiz-adv-x="344" 
d="M305 439q-10 -20 -21 -11q-4 11 -17 31q-39 4 -82 -20v-135q20 -2 57 -10q41 -17 54 -40q6 -16 6 -34q0 -23 -11 -53q-9 -24 -19 -48q-23 -61 -85 -103q-2 0 -2 -1v-45q0 -29 -18 -29q-16 0 -16 28v37q-24 -2 -36 10q-65 49 -65 103q0 7 1 13q2 15 19 15q7 0 10 -6
q-7 -60 59 -98q3 -1 12 -1v230q-25 0 -68 1q-51 17 -51 80q0 53 79 114q14 11 40 22v36q0 26 17 26t17 -26v-17q32 12 58 12q18 0 34 -6t19 -21q14 -27 9 -54zM151 309v105q-13 -7 -35 -24t-22 -38q0 -8 4 -15q16 -17 53 -28zM223 231q-9 24 -38 34v-205q42 50 42 119
q0 23 -4 52z" />
    <glyph glyph-name="percent" unicode="%" horiz-adv-x="459" 
d="M399 518q7 -5 7 -12q0 -14 -25 -34q-24 -37 -117 -197q-116 -199 -147 -273q-10 -24 -31 -24q-8 0 -12 7q-7 10 -2 36q149 295 275 464q-87 7 -128 7q-33 0 -29 -5q29 -35 29 -90q0 -42 -16 -81q-30 -56 -73 -56q-40 0 -78 34q-25 28 -25 77q0 42 17 94q11 24 36 40.5
t50 16.5q11 0 24 -9q92 16 179 16q56 0 66 -11zM404 45q-9 -18 -26 -35q-24 -22 -47 -22q-42 0 -76 35q-28 28 -28 79q0 44 19 89q10 26 34.5 42.5t50.5 15.5q29 -1 59.5 -36t30.5 -91q0 -41 -17 -77zM161 459q-16 29 -27 25q-63 -33 -63 -130q0 -10 0.5 -20.5t11.5 -26.5
t26 -16q22 0 37 25q28 32 28 85q0 33 -13 58zM362 187q-17 31 -26 25q-69 -38 -63 -151q1 -10 12 -26t24 -16q22 0 39 27q27 33 27 85q0 32 -13 56z" />
    <glyph glyph-name="ampersand" unicode="&#x26;" horiz-adv-x="491" 
d="M465 192q5 -10 5 -21q0 -17 -19 -39q-17 -17 -33 -35q-3 -2 -9 -9q18 -25 42 -53q21 -12 21 -31q0 -16 -19 -16q-6 0 -35 29q-39 38 -46 44q-85 -66 -168 -66q-34 0 -67 11q-77 27 -107 112q-3 15 -3 31q0 53 41 112q23 32 82 93q1 1 1 3q0 4 -29 44t-29 68q0 45 56 96
t102 51q20 0 49 -15q23 -12 45 -24q5 2 19 17q12 12 19 12t12 -8q2 -10 2 -21q0 -54 -41 -99q-50 -60 -114 -134q3 -11 53 -92q55 -87 87 -126q16 10 43 33q7 3 16 21q8 15 15 15q4 0 9 -3zM307 531q-3 13 -23 25t-38 10q-55 -7 -90 -93q0 -25 42 -67q4 -7 55 54.5t54 70.5z
M341 94q-40 40 -150 209q-84 -103 -76 -177q7 -25 32 -43t48 -18q62 0 78 2q35 5 68 27z" />
    <glyph glyph-name="quotesingle" unicode="'" horiz-adv-x="218" 
d="M128 566q-13 -94 -32 -94q-26 0 -26 61q0 20 -3 52t-3 45q0 31 11 53q4 9 21 19t30 10q22 0 22 -34q0 -15 -7 -48q-10 -43 -13 -64z" />
    <glyph glyph-name="parenleft" unicode="(" horiz-adv-x="357" 
d="M275 -185q0 -11 -18 -11q-4 0 -15 7q-90 80 -142 187q-50 102 -50 234q0 169 106 328q64 96 169 182q7 7 16 7q14 0 14 -9q0 -3 -7 -17q-93 -102 -144.5 -234t-51.5 -269q0 -110 34 -218q31 -98 83 -171q6 -8 6 -16z" />
    <glyph glyph-name="parenright" unicode=")" horiz-adv-x="357" 
d="M201 -7q-68 -100 -170 -182q-7 -7 -15 -7q-14 0 -14 9q0 3 7 17q172 190 194 447q2 28 2 56q0 110 -34 218q-31 98 -83 171q-5 10 -5 16q0 11 17 11q7 0 15 -7q89 -79 142 -187q50 -102 50 -234q0 -172 -106 -328z" />
    <glyph glyph-name="asterisk" unicode="*" horiz-adv-x="316" 
d="M259 323q6 -3 6 -11q0 -22 -21 -22q-5 0 -10 4q-18 11 -52 32q-3 -20 -9 -63q-2 -19 -21 -19t-15 17q0 24 1 65q-21 -10 -56 -30q-8 -6 -15 -6q-18 0 -18 18q0 11 10 17q23 18 63 47q-16 17 -55 45q-7 5 -7 14q0 21 20 21q7 0 14 -6q18 -9 51 -28q4 20 9 62q1 14 21 14
q19 0 15 -14q2 -24 0 -63q20 10 56 29q5 5 11 5q17 0 17 -22q0 -7 -5 -11q-16 -7 -36 -24q-13 -11 -27 -23q16 -17 53 -48z" />
    <glyph glyph-name="plus" unicode="+" horiz-adv-x="404" 
d="M243 264l50 -3q70 -5 67 -33q-2 -20 -113 -25q-4 0 -11 -1q-3 -20 -10 -58q-12 -71 -39 -71q-20 0 -15 111q2 8 0 13q-96 -11 -121 7q-3 3 -3 9q0 12 13 27.5t24 18.5q39 9 87 9q0 90 18 112q4 4 11 4q12 0 25.5 -11t15.5 -22q6 -32 1 -87z" />
    <glyph glyph-name="comma" unicode="," horiz-adv-x="218" 
d="M167 44q-9 -64 -62 -99q-39 -26 -74 -26q-10 -4 -10 3q0 2 27.5 26.5t36.5 52.5q-5 3 -14 9q-15 18 -15 41q0 18 10 34q11 24 43 24t47 -24q14 -17 11 -41z" />
    <glyph glyph-name="hyphen" unicode="-" horiz-adv-x="328" 
d="M270 228q0 -20 -82 -25q-16 -1 -54 -6q-33 -5 -48 -5q-28 0 -40 12q-3 4 -3 11q0 12 8 26.5t15 17.5q24 9 60 9q23 0 92 -7q52 -5 52 -33z" />
    <glyph glyph-name="hyphen" unicode="&#x2010;" horiz-adv-x="328" 
d="M270 228q0 -20 -82 -25q-16 -1 -54 -6q-33 -5 -48 -5q-28 0 -40 12q-3 4 -3 11q0 12 8 26.5t15 17.5q24 9 60 9q23 0 92 -7q52 -5 52 -33z" />
    <glyph glyph-name="period" unicode="." horiz-adv-x="218" 
d="M156 85q12 -14 12 -34q0 -25 -16.5 -40.5t-39.5 -15.5q-24 0 -40 16.5t-16 39.5q0 18 10 34q11 24 43 24t47 -24z" />
    <glyph glyph-name="slash" unicode="/" horiz-adv-x="546" 
d="M522 702q-117 -207 -233 -413q-145 -262 -209 -404q-6 -14 -20.5 -28.5t-23.5 -14.5q-5 0 -6 5q-12 38 -12 63t17 54q29 51 36 67q54 126 206 377q142 233 221 336q7 10 16 10q16 0 16 -24q0 -14 -8 -28z" />
    <glyph glyph-name="zero" unicode="0" horiz-adv-x="415" 
d="M356 114q-15 -33 -50 -66q-45 -42 -88 -42q-91 0 -151 64q-51 55 -51 153q0 87 36 177q19 48 66.5 79t99.5 29q18 -1 51 -18q39 -20 60 -45q60 -71 60 -179q0 -80 -33 -152zM279 394q-11 19 -28 37.5t-26 14.5q-72 -37 -106 -126q-31 -79 -25 -178q1 -21 23 -51
q26 -37 59 -37q37 0 78 50q53 65 53 169q0 71 -28 121z" />
    <glyph glyph-name="one" unicode="1" horiz-adv-x="207" 
d="M155 480q-1 -72 -9 -194q-8 -129 -9 -191q20 -15 20 -35q0 -8 -4 -13q-11 -14 -22.5 -29t-27.5 -19q-12 -3 -21 9t-10 22q-2 38 0 301q0 24 -4 38q-3 6 -26 18t-23 21q0 6 5 12q36 43 96 82q3 2 7 2q9 0 18.5 -9.5t9.5 -14.5z" />
    <glyph glyph-name="two" unicode="2" horiz-adv-x="338" 
d="M300 81q11 -6 11 -20q0 -21 -17 -37q-32 -31 -46 -31q-4 0 -8 2q-7 5 -7 16v8q1 5 1 7q0 11 -10 10q-22 -1 -67.5 -14.5t-68.5 -13.5q-39 0 -66 30q-10 11 5 29q49 78 98 157q58 94 78 167q2 9 -5 19.5t-17 13.5t-20 3q-41 0 -61 -28q7 -58 -30 -62q-5 -1 -24 18t-21 27
q-7 61 79 111q28 12 56 12t59 -12q20 -8 44 -49.5t24 -62.5q0 -38 -25 -79l-44 -62q-37 -48 -108 -146q-1 -3 16 -3q7 0 33 1t43 1q68 0 98 -12z" />
    <glyph glyph-name="three" unicode="3" horiz-adv-x="316" 
d="M275 108q-72 -118 -182 -136q-9 -1 -34 11t-43 26q-5 5 -2 20t10 21t16 5q10 -2 12.5 -13t17.5 -19q12 -6 19 -6q36 7 74 44q34 33 36 50q3 33 -41 78.5t-44 66.5q3 27 33 51q26 19 52 39q27 26 24 61q-27 35 -65 38q-25 2 -47 -22q-8 -23 -13 -31q-10 -16 -26 -20
q-3 -1 -6 -1q-9 0 -15.5 9.5t-3.5 20.5q3 52 38 84q28 19 67 19q35 0 67 -15q33 -23 56 -54q7 -16 7 -32q0 -29 -23 -60q-2 -3 -43 -50q-4 -5 -4 -11q0 -14 26 -36q18 -14 34 -28.5t16 -48.5q0 -39 -13 -61z" />
    <glyph glyph-name="four" unicode="4" 
d="M369 175q0 -17 -48 -52q-6 -5 -42 -19q-28 -10 -32 -30q-4 -17 0 -39q4 -25 15 -36q4 -4 4 -6q0 -7 -19 -8q-23 -2 -62 18q-15 13 -15.5 44t-13.5 40q-24 4 -69 15q-22 9 -43 45q-16 28 -22 52q-4 18 -4 37q0 49 35 128q45 99 51 124q7 19 24 19q24 0 28 -25q2 -14 2 -28
q0 -47 -36.5 -133t-34.5 -136q1 -14 56 -14q24 0 29 4q12 22 18 63q4 34 9 68q7 21 15.5 44t23.5 34q5 2 11 2q22 0 24 -22q2 -33 -7 -92q-11 -63 -10 -90q0 -6 12 -4q11 2 23 4q4 1 23 5q15 3 25 3q30 0 30 -15z" />
    <glyph glyph-name="five" unicode="5" horiz-adv-x="328" 
d="M297 440q-14 -45 -76 -45q-7 0 -20 1h-21q-23 0 -37 -4q-21 -31 -21 -59q0 -8 2 -15q2 -11 29 -14q44 -5 46 -5q46 -12 62 -43.5t16 -66.5q0 -57 -39 -113q-80 -114 -204 -148q-7 -1 -13.5 7t-6.5 16q0 4 2 7q7 7 18 8q15 2 22 6q58 30 94 81q40 56 40 117q0 43 -37 61
q-8 4 -70 11q-42 5 -46 35q10 149 61 220q9 12 22 12q24 0 38 -27q21 -5 44 -5q13 0 41 2.5t46 2.5q15 0 15 -14q0 -5 -7 -28z" />
    <glyph glyph-name="six" unicode="6" horiz-adv-x="350" 
d="M327 239q6 -32 6 -63q0 -113 -71 -168q-27 -15 -61 -15q-66 0 -122 45q-62 50 -62 133q0 19 4 38q18 87 75 167q54 77 129 127q2 1 5 1q12 0 12 -20q0 -7 -3 -11q-141 -174 -141 -292q0 -53 25 -101q23 -32 81 -32q14 0 27 3q38 16 53 61q17 50 -2 85q-13 17 -29 17
q-12 0 -35 -13.5t-32 -13.5q-15 0 -25 22q-3 6 -3 15q0 20 14 43t34 34q28 16 50 10q61 -16 71 -72z" />
    <glyph glyph-name="seven" unicode="7" horiz-adv-x="350" 
d="M309 249q3 -9 -13.5 -33t-27.5 -24q-41 0 -50 -18q-9 -38 -30 -108q-7 -22 -16 -46t-28 -34q-4 -1 -8 -1q-14 0 -27 12t-12 19q8 38 31 87q19 41 38 81q2 5 -4 20.5t-6 22.5q0 8 5 14q15 23 38 23q40 67 58 140q-33 8 -76 8q-45 0 -127 -12q-3 -9 -14 -11t-16 4
q-9 14 -9 32q0 13 9 46q11 24 57 27q65 5 107 5q90 0 105 -19q23 -28 23 -60q0 -30 -23 -79q-27 -57 -31 -78q13 -2 27.5 -4t19.5 -14z" />
    <glyph glyph-name="eight" unicode="8" horiz-adv-x="350" 
d="M334 446q2 -12 -8 -24.5t-22 -15.5q-3 1 -10 -2q-31 -56 -66 -96q11 -9 35 -28.5t34 -28.5q20 -25 20 -62q0 -42 -25 -88q-23 -41 -61 -71q-41 -33 -86 -40q-66 -4 -115 56q-14 22 -14 53q0 48 36 93l66 76q-11 8 -38 25q-53 32 -46 98q2 24 25 55t52 47q18 10 38 10
q23 0 19 -22q-38 -14 -50 -56q-3 -17 3.5 -40t20.5 -37q10 -9 26.5 -18.5t19.5 -7.5q53 51 53 80q0 7 -5 10q-22 14 -26 54q-2 20 13 23q44 15 57 15q5 0 7 -2q10 -16 29 -44q8 -3 18 -12zM247 155q-3 30 -35 54q-12 9 -58 34q-49 -40 -73 -90q-5 -20 -5 -36q0 -35 22 -60
q27 -23 50 -23q9 0 20 4q80 39 79 117z" />
    <glyph glyph-name="nine" unicode="9" horiz-adv-x="350" 
d="M334 322q0 -116 -108 -221q-62 -60 -63 -61q-41 -36 -75 -42q-7 -1 -7 8q0 10 7 22q86 97 115 146q55 90 52 178q-13 58 -59 91q-20 10 -42 10q-30 0 -48 -16q-44 -40 -44 -102q0 -9 1 -19q4 -28 38 -28q10 0 19 4q5 2 24 14q14 9 21 9q3 0 5 -2q17 -14 17 -36
q0 -19 -11 -39q-35 -48 -80 -50q-14 -1 -37 15q-31 21 -37 53q-6 29 -6 59q0 130 82 173q29 15 61 15q47 0 90 -28t64 -67.5t21 -85.5z" />
    <glyph glyph-name="colon" unicode=":" horiz-adv-x="218" 
d="M156 313q12 -15 12 -35q0 -25 -17 -40t-40 -15t-39 16.5t-16 39.5q0 18 10 33q11 24 43 24t47 -23zM156 85q12 -14 12 -34q0 -25 -16.5 -40.5t-39.5 -15.5q-24 0 -40 16.5t-16 39.5q0 18 10 34q11 24 43 24t47 -24z" />
    <glyph glyph-name="semicolon" unicode=";" horiz-adv-x="218" 
d="M156 313q12 -15 12 -35q0 -25 -17 -40t-40 -15t-39 16.5t-16 39.5q0 18 10 33q11 24 43 24t47 -23zM167 44q-9 -64 -62 -99q-39 -26 -74 -26q-10 -4 -10 3q0 2 27.5 26.5t36.5 52.5q-5 3 -14 9q-15 18 -15 41q0 18 10 34q11 24 43 24t47 -24q14 -17 11 -41z" />
    <glyph glyph-name="less" unicode="&#x3c;" horiz-adv-x="393" 
d="M67 223q29 62 110 100q21 9 137 47q5 1 8 1q16 0 16 -16q0 -21 -26 -32q-34 -14 -85 -47q-37 -25 -75 -50q34 -24 69 -48q47 -31 79 -46q22 -10 22 -30q0 -18 -18 -18q-4 0 -8 1q-75 25 -137 58q-80 43 -92 80z" />
    <glyph glyph-name="equal" unicode="=" horiz-adv-x="404" 
d="M360 294q0 -20 -111 -25q-22 -1 -75 -6q-45 -5 -66 -5q-39 0 -55 12q-4 4 -4 10q0 12 11.5 27t22.5 18q30 9 81 9q26 0 126 -7q70 -5 70 -33zM360 169q0 -21 -111 -25q-24 -1 -75 -6q-46 -4 -67 -4q-38 0 -54 11q-4 4 -4 10q0 13 12 27.5t22 16.5q32 10 84 10
q30 0 123 -7q70 -5 70 -33z" />
    <glyph glyph-name="greater" unicode="&#x3e;" horiz-adv-x="393" 
d="M332 223q-19 -37 -107 -80q-67 -33 -145 -58q-5 -1 -9 -1q-15 0 -15 15q0 22 27 33.5t165 93.5q-33 25 -67 50q-45 33 -75 47q-21 10 -21 29t18 19q4 0 8 -1q101 -33 130 -49q73 -38 91 -98z" />
    <glyph glyph-name="question" unicode="?" horiz-adv-x="513" 
d="M487 476q3 -61 -40 -95q-47 -22 -112.5 -65.5t-78.5 -62.5q-16 -23 -16 -70q0 -7 3 -20t3 -19q0 -13 -31 -13q-30 0 -39 11q-21 27 -21 51q0 1 6 44q9 61 48 91q54 31 109 62q74 45 74 86q0 18 -15 34t-36 22q-43 12 -85 25q-52 13 -88 13q-45 0 -80 -18q-5 -10 -6.5 -28
t-5.5 -27q-2 -5 -15 -3t-20 9q-20 31 -16 84q-2 26 16 40q49 37 126 37q40 0 137 -18q82 -26 122 -56q58 -44 61 -114zM254 79q10 -15 10 -35q0 -25 -16 -41.5t-39 -16.5t-38 17.5t-15 41.5q0 18 9 33q11 25 42 25t47 -24z" />
    <glyph glyph-name="at" unicode="@" horiz-adv-x="700" 
d="M675 358q0 -87 -46.5 -155t-118.5 -83q-29 -6 -45 3q-22 13 -28 41t-11 54q-1 1 -2 1q-4 0 -27 -22q-27 -28 -38 -36q-36 -27 -42 -30q-25 -15 -48 -15q-38 0 -70 36q-27 32 -27 55q1 80 39 149q40 75 110 112q28 15 62 15q37 0 54 -19q8 -18 17 -36q14 -24 33 -22
q12 1 25.5 -12t12.5 -21q-1 -7 -11 -63q-8 -41 -8 -65q0 -41 19 -64q2 -2 5 -2q23 0 60 57q41 64 41 127q0 85 -67.5 144t-157.5 59q-119 0 -214.5 -92.5t-95.5 -211.5q0 -95 73.5 -157t194.5 -62q92 0 229 80l29 -26q-87 -51 -129 -69q-75 -33 -136 -33q-143 0 -233 78
q-86 74 -86 183q0 143 100 249q103 110 251 110q122 0 204 -72.5t82 -184.5zM439 370q-14 0 -24.5 19t-18 22t-14.5 3q-15 0 -41 -12q-78 -50 -79 -161q0 -24 27 -37q6 -1 12 -1q25 0 69 35q22 22 48.5 65t26.5 60q0 7 -6 7z" />
    <glyph glyph-name="A" unicode="A" horiz-adv-x="874" 
d="M849 72q0 -31 -2 -40q-4 -22 -21 -27q-7 -4 -15 -4q-9 0 -22 5q-17 6 -22 7q-28 14 -41 53q-20 62 -21 64q-16 45 -37 154q-21 104 -41 155q-11 19 -39 19q-10 0 -19 -4q-108 -68 -301 -293q-95 -115 -190 -229q-9 -6 -23 -1t-14 17q-1 53 42 100q3 3 6 3t8.5 -10
t11.5 -10q3 0 6 3q107 149 214 299q128 177 240 266q23 22 54 22q24 0 38 -18q35 -45 53 -124q16 -68 31 -136q7 -22 28 -114q16 -70 34 -112q5 -12 21.5 -23t20.5 -22zM640 294q-9 -77 -118 -131q-37 -14 -76 -14q-35 0 -59 12q-32 34 -30 58q8 28 35 38q17 6 56 8t55 8
q20 1 66 19q41 16 67 13q4 -1 4 -11z" />
    <glyph glyph-name="B" unicode="B" horiz-adv-x="721" 
d="M663 247q17 -29 17 -60q0 -40 -30 -88q-9 -14 -58 -79q-22 -29 -67 -50q-49 -22 -93 -20q-47 10 -47 54q0 54 80 105q6 4 13 4q27 0 37 -28q4 -22 10 -62q56 12 67 95q5 40 -21 72q-10 13 -57 50q-39 30 -52 57q-9 18 -9 38q0 35 32 85q29 45 58 89q29 53 24 97
q-2 18 -22 27q-15 7 -27 5q-85 -31 -144 -119q-27 -39 -88 -169q-38 -112 -113 -337q-1 -1 -12 -16q-6 -8 -15 -6q-21 0 -39 26q-2 3 -5 17q49 270 50 464q0 71 -33 85q-5 2 -9 2q-16 0 -23 -19q-9 -24 -8 -72q1 -51 -6 -73.5t-23 -22.5q-4 0 -5 5q-12 29 -12 68
q0 36 17 118q3 16 20 29t27 13q54 -1 72 -38q24 -35 33 -100q12 -94 15 -106q37 54 75 109q47 66 90 104q53 47 76 62q46 31 90 31q21 0 42 -7q27 -16 36 -37t9 -43q0 -39 -40 -99q-45 -68 -52 -99q-5 -22 43 -72q64 -67 77 -89z" />
    <glyph glyph-name="C" unicode="C" horiz-adv-x="535" 
d="M509 145q-11 -32 -51 -73q-96 -99 -205 -99q-63 0 -120 33q-60 34 -83 89q-26 62 -26 135q0 116 61 221q106 181 292 261q9 4 31.5 -6.5t26.5 -21.5q8 -22 8 -46q0 -43 -31 -95q-7 -13 -60 -85q-20 -22 -35 -22q-11 0 -20 9.5t-9 20.5q0 10 14.5 32t11.5 34q-6 9 -27 3
q-74 -57 -118 -142q-47 -89 -47 -183q0 -47 12 -92q17 -61 120 -81q14 -3 28 -3q97 0 200 141q5 2 9 2q10 0 14 -13q2 -9 4 -19z" />
    <glyph glyph-name="D" unicode="D" horiz-adv-x="705" 
d="M636 114q-52 -102 -161 -136q-156 1 -333 117q-17 11 -31 -6q1 8 1 -35q0 -16 -14 -24q-23 5 -38 32l-26 46q0 9 -1.5 29t-1.5 31q0 58 41 75q48 5 112 -36q80 -52 106 -59q48 -26 96 -51q58 -30 99 -30q27 0 52 11q79 69 79 173q0 103 -72.5 217t-165.5 163
q-48 15 -75 4q-30 -12 -38 -42q-13 -47 -13 -83q0 -90 77 -124q32 -14 52 -14q23 0 36 16q17 -7 23 -52q-11 -92 -59 -109q-24 -2 -53 21q-22 19 -45 38q-79 98 -79 204q0 84 51 168q17 29 71 29q18 0 36 -4q118 -40 207 -174q96 -145 96 -270q0 -68 -29 -125z" />
    <glyph glyph-name="E" unicode="E" horiz-adv-x="546" 
d="M513 229q9 -15 9 -30q0 -20 -16 -46q-15 -20 -30 -41q-42 -61 -107 -97t-137 -36q-35 0 -69 9q-89 22 -129 116q-9 29 -9 60q0 97 98 222q2 7 2 13q0 21 -36 54q-33 30 -28 62q10 63 71 121.5t125 58.5q29 0 71 -18q37 20 50 20q15 0 25 -13q5 -17 5 -36q0 -57 -38 -109
q-17 -8 -39 -5q-56 27 -56 64q0 9 3 19q-7 26 -37 26q-8 0 -15 -3q-35 -8 -65 -42q-26 -31 -38 -69q2 -39 63.5 -76t61.5 -73q0 -10 -3 -22q-14 -24 -53 -66t-53 -65q-25 -38 -25 -78q0 -13 3 -27q29 -74 93 -88q18 -4 36 -4q116 0 225 158q6 4 14.5 24t18.5 20q4 0 9 -3z
" />
    <glyph glyph-name="F" unicode="F" horiz-adv-x="590" 
d="M553 650q-26 -26 -76 -26q-9 0 -28 1h-28q-21 0 -37 -3q-172 -13 -264 -56q-3 -8 7 -17t10 -15q0 -5 -3 -10q-19 -10 -42 -10q-28 0 -50 15q-16 21 -16 56q0 17 4 35q21 47 72 62q49 7 97 14q116 19 226 19q60 0 119 -6q15 -7 15 -28q0 -15 -6 -31zM555 399
q-1 -28 -26 -35q-25 -3 -49 -6q-29 -3 -37 -20q-1 -155 -13 -242q-19 -130 -70 -219q-13 -15 -33 -15q-11 0 -24 5q-21 13 -29 46q-6 28 -12 57q-3 97 -3 90q0 73 19 112q6 1 12 -5t6 -12q2 -62 4 -125q4 -70 21 -118q18 -15 24 -4q20 56 20 135q0 41 -14 176q-1 11 0 55
q0 35 -6 55q-21 2 -49 -31.5t-41 -33.5q-15 0 -30 25q1 42 47 65q38 18 77 36q2 54 5 107q9 59 61 74q38 -12 38 -56q0 -14 -4 -43.5t-4 -44.5q0 -9 1 -17q14 -8 34 -8q8 0 23 1.5t22 1.5q18 0 30 -6z" />
    <glyph glyph-name="G" unicode="G" horiz-adv-x="612" 
d="M557 330q15 -37 15 -87q0 -32 -7 -89q-9 -64 -10 -88q-16 -69 -33 -138q-22 -81 -60 -127q-25 -13 -33 -13q-6 0 -11 2q-37 46 -37 116q0 56 23 124q4 2 7 2q12 0 19 -25q-10 -119 -10 -111q0 -30 6 -56q4 -9 10 -9q8 0 23 22q17 76 30 119q-2 5 -2 11t3 23t3 26
q0 10 -2 18q4 12 4 25q0 43 -33 75q-100 -78 -127 -95q-77 -49 -141 -49q-45 0 -88 24q-81 57 -81 178q0 30 5 67q17 140 126 250q104 106 246 139q31 7 52 7q35 0 51 -17q11 -9 11 -22q0 -1 -11 -39q-51 -52 -74 -70q-47 -35 -90 -36q-12 3 -25 21q3 8 -3 21
q-129 -65 -204 -267q-10 -36 -10 -71q0 -83 51 -119q25 -18 57 -18t75 18q62 41 125 138q73 110 113 146q22 0 37 -26z" />
    <glyph glyph-name="H" unicode="H" horiz-adv-x="775" 
d="M756 292q-18 -14 -50 -22q-51 -13 -53 -14q-11 -32 -11 -72q0 -43 13 -99q9 -1 22 -9q2 -5 2 -12q0 -25 -15 -51q-9 -15 -25 -18q-6 -1 -30 0q-44 2 -50 46q-12 54 -12 177q1 7 -1 8q-1 1 -8 0q-67 -10 -134 -19q-77 -11 -133 -11q-18 0 -36 1q-9 -17 -13 -53
q-5 -42 -10 -57l-36 -122q-25 -69 -74 -102q-1 0 -13 -4q-9 -2 -16 0q-32 37 -32 104q0 69 30 124q3 2 7 2q14 0 19 -23q2 -21 -5 -62q-8 -45 -8 -65q0 -13 2 -24q4 -4 9 -4q6 0 25 25q47 115 61 270q-3 8 -25 17q-18 8 -18 18q0 6 4 14q14 11 46 30q8 128 -19 204
q-7 20 -26 20q-3 0 -5 -1q-8 -9 -12 -41q-5 -28 -19 -36q-4 -2 -31.5 13t-29.5 21q-10 32 -10 65q0 72 44 106q69 2 134 -91q17 -47 22 -115q2 -20 4 -122q106 14 313 34q7 2 9 10q22 130 32 160q29 88 92 123q18 -5 18 -21q0 -5 -3 -10q-25 -49 -35 -126l-11 -134
q16 -9 50.5 -14t50.5 -12q5 -5 3 -12q-3 -12 -3 -14z" />
    <glyph glyph-name="I" unicode="I" horiz-adv-x="338" 
d="M275 517q10 -87 10 -164q0 -192 -59 -319q-3 -2 -18 -21q-11 -13 -23 -13q-48 7 -69 73q0 8 8 20q4 1 9 1q19 0 49 -42q4 4 9 13q-1 70 8 164q-2 21 -2 156q0 95 -17 154l-16 12t-17 5q-13 -12 -17 -71q-4 -50 -28 -50q-13 0 -34 11q-43 24 -37 114q11 55 49 76
q124 -3 195 -119z" />
    <glyph glyph-name="J" unicode="J" horiz-adv-x="328" 
d="M264 82l-28 -154q-21 -86 -74 -131q-34 -6 -53 7q-26 45 -26 110q0 76 31 145q3 4 6 4t8.5 -8.5t9.5 -7.5l-8 -90q-4 -54 -2 -93q5 -2 12 -12t12 -10q4 0 8 2q18 27 31 119q3 128 3 260q0 131 -3 260q-6 46 -11 62q-11 33 -33 51q-16 4 -21 -10t-10 -27q5 -18 5 -36
q0 -33 -17 -54q-41 -7 -68 16q-23 27 -23 73q0 47 21 95q21 17 49 17q36 0 101 -36q55 -38 77 -81q17 -81 17 -183q0 -55 -5 -142q-8 -120 -9 -146z" />
    <glyph glyph-name="K" unicode="K" horiz-adv-x="721" 
d="M688 102q8 -22 8 -48q0 -44 -22 -84q-14 -26 -49 -26q-19 0 -28 9q-76 70 -152 139q-82 82 -110 165q-2 6 -5 6q-5 0 -14 -12q-11 -16 -13 -18q-42 -67 -84 -133q-51 -79 -105 -106q-7 -2 -21.5 12.5t-14.5 21.5q1 38 28 82q24 36 48 73q19 158 19 213q0 50 -7 91
q0 6 -10 11t-14 3q-6 -5 -16 -46q-8 -28 -37 -23q-17 5 -36 26q-23 26 -21 50q9 112 53 124q35 4 77 -33q36 -32 58 -74q5 -9 5 -50q0 -31 -4 -106q-4 -79 -4 -107q0 -5 2 -5q1 0 5 5q120 151 356 350q6 2 30 15q21 11 33 11q17 0 26 -20q3 -36 -15 -56q-100 -31 -240 -169
q-15 -24 -15 -53q0 -17 5 -37q27 -57 90 -114q56 -46 113 -93q27 -18 34 -18q3 0 5 2q19 28 29 28q6 0 13 -6z" />
    <glyph glyph-name="L" unicode="L" horiz-adv-x="634" 
d="M620 109q4 -40 -23 -78q-24 -33 -58 -46q-44 -17 -94 -17q-54 0 -135 23q-122 34 -132 36q-18 4 -52 -13q-37 -18 -52 -18q-20 0 -36 19.5t-6 51.5q13 38 63 38q7 0 22 -1h23q50 0 59 42q6 31 48 158q54 163 95 243q21 41 58 71q46 38 94 35q25 -7 30 -32q6 -34 6 -74
q0 -117 -48 -117q-22 0 -40.5 38t-33.5 38q-8 0 -17 -5q-14 -8 -76 -175q-72 -192 -77 -203q-3 -6 -3 -11q0 -20 50 -24q10 -1 81 -1q19 0 61 -4.5t63 -4.5q75 0 106 46q2 6 7 6q17 0 17 -21z" />
    <glyph glyph-name="M" unicode="M" horiz-adv-x="884" 
d="M845 57q-15 -55 -30.5 -57.5t-27.5 -2.5q-38 0 -54 23q-22 18 -26 55q0 33 -1 66q1 15 9 102q6 63 6 103q0 43 -6 79q-7 12 -16 25t-21 15q-38 6 -86 -74q-18 -30 -94 -185q-55 -114 -109 -176q-3 -1 -6 -1q-6 0 -19 14q-1 66 34.5 185.5t35.5 184.5q-17 18 -35 10
q-54 -60 -99 -147q-22 -44 -70 -160q-42 -103 -74 -158q-7 -12 -20 -12q-6 0 -10 4t-5.5 14t-4.5 14q21 99 43 198q23 118 23 205q0 50 -7 97q-3 7 -19 19q-15 -5 -24.5 -40.5t-26.5 -35.5q-10 0 -27 11t-23 16q-13 12 -14 24q2 67 7 90q11 49 45 65q40 -4 77.5 -33
t47.5 -67q12 -46 12 -106q0 -32 -12 -165q2 -5 6 -7q43 66 85 133q55 76 115 101q5 -4 21 -3.5t21 -7.5q15 -23 15 -59q0 -15 -4 -49q-3 -30 -2 -45q38 32 115 147q66 98 130 132q8 3 15 3q15 0 40 -16q48 -67 48 -168q0 -41 -10.5 -124t-10.5 -124q0 -30 4 -55
q0 -16 20 -26t19 -31z" />
    <glyph glyph-name="N" unicode="N" horiz-adv-x="655" 
d="M628 67q0 -15 -8 -33q-9 -22 -24 -31q-7 -5 -23 -5q-42 0 -65 23q-25 31 -25 85q0 15 3 51q2 32 1 50q11 104 11 139q0 68 -19 110q-7 16 -29 16q-24 0 -33 -14q-56 -83 -127 -233q-82 -173 -118 -235q-12 -21 -16 -25q-8 -9 -22 -14q-12 -2 -20.5 6.5t-5.5 21.5l44 212
q23 124 23 217q0 34 -3 67q-4 12 -6 15q-5 7 -14 8q-21 -1 -28 -35.5t-21 -34.5q-9 0 -21 6l-30 14q-18 9 -18 27q-1 66 4 92q13 62 55 62q34 0 74 -40t51 -81q3 -6 3 -43q0 -109 -14 -217l22 24q27 43 55 87q37 59 58 83q39 45 77 90q53 50 110 43q44 -5 59 -63
q8 -33 8 -106q0 -35 -7 -109.5t-7 -111.5q0 -48 8 -85q2 -5 19 -13.5t19 -19.5z" />
    <glyph glyph-name="O" unicode="O" horiz-adv-x="655" 
d="M621 378q13 -7 13 -13q0 -7 -20.5 -19t-20.5 -20q10 -205 -126 -304q-75 -55 -169 -55q-70 0 -131 33q-138 73 -138 282q0 22 2 46q18 101 68 176q55 83 140.5 116t138.5 33q50 0 96 -25q20 -11 34 -33.5t12 -34.5q0 -2 28.5 -12.5t33.5 -34.5q2 -37 3 -75q4 -44 36 -60z
M547 321q1 17 -37 20q-17 3 -33.5 30.5t-17.5 55.5q-3 13 -3 28q0 49 25 89q8 13 -42.5 36.5t-88.5 18.5q-83 -12 -150.5 -78t-84.5 -151q-7 -36 -7 -71q0 -141 97 -201q49 -30 113 -30q77 0 131 40q99 73 99 191q0 11 -1 22z" />
    <glyph glyph-name="P" unicode="P" horiz-adv-x="666" 
d="M600 620q30 -40 30 -100q0 -62 -41 -179q-12 -35 -41 -79l-50 -72q9 -15 18 -29q10 -17 8 -33q-22 -25 -38 -25q-7 0 -14 5q-17 10 -35 10q-22 0 -61.5 -21t-62.5 -21q-11 0 -21 3q-27 11 -17 61q17 33 23 42q15 22 33 32q15 11 37 11q12 0 35.5 -4.5t34.5 -4.5
q29 0 43 25q63 109 63 220q0 25 -3 49q-6 43 -52 50q-93 4 -168 -83q-51 -59 -102 -174q-32 -72 -51 -163q-3 -92 -5 -183q-8 -102 -47 -167q-8 -9 -20 -9q-7 0 -11 6q-25 42 -25 96q0 46 19 115q17 55 33 110q16 66 16 155q0 26 -1.5 79t-1.5 80q0 29 1 54q-4 28 -9 57
q-6 33 -32 40q-13 -14 -15 -72q-1 -48 -21 -48q-5 0 -10 6l-8 10q-6 114 32 159q29 15 52 -3q42 -51 47 -146l6 -166q3 -3 6 -3q4 0 8.5 10.5t7.5 12.5q67 159 105 212q80 112 196 117q83 -8 109 -42z" />
    <glyph glyph-name="Q" unicode="Q" horiz-adv-x="644" 
d="M586 -27q-24 0 -68 29q-42 26 -43 26q-26 -14 -53 -27q-30 -15 -56.5 -20.5t-53.5 -5.5q-133 0 -205 83q-78 90 -78 232q0 93 37 168q44 89 119.5 147t168.5 71q55 0 75 -4q40 -8 59 -36q2 -4 2 -8q0 -6 -6 -12.5t-6 -10.5t3 -8q116 -87 116 -264q0 -35 -5 -71
q-8 -57 -45 -134q-2 -9 32 -55q36 -49 36 -72q0 -28 -29 -28zM523 213q22 62 22 127q0 117 -67 189q-6 9 -44 26q-31 14 -31 33q0 8 5 18q-6 11 -25 12q-26 2 -29 3q-87 -6 -156 -76q-63 -63 -89 -152q-6 -35 -6 -68q0 -136 94 -211q45 -36 113 -36q57 0 108 24q3 1 3 5
q0 6 -16 47t-16 66q0 17 7 30q14 24 34 24q8 0 14 -5q31 -33 49 -62q8 -13 16 -13q10 0 14 19z" />
    <glyph glyph-name="R" unicode="R" horiz-adv-x="710" 
d="M719 25q3 -4 3 -8q0 -8 -8 -13t-16 -4q-54 6 -109 47q-22 17 -88 79q-84 80 -128 136q-6 7 -6 15q0 22 43 56q33 26 66 51q121 66 127 165q2 43 -52 68q-62 7 -112 -34q-39 -31 -76 -96q-28 -53 -56 -105q-50 -132 -153 -394q-7 -17 -26 -17q-12 0 -24 7q-14 16 -14 38
q0 13 4 33q7 27 8 33q44 270 44 380q0 39 -3 76q-6 10 -11 19q-8 11 -18 13q-5 3 -10 3q-8 0 -15 -9t-13 -17q-5 -23 -8 -82q-2 -52 -12 -81q-6 -3 -10 -3q-12 0 -13 21l-3 34q0 149 66 177q41 9 70.5 -41.5t36.5 -186.5q2 -34 8 -34q2 0 24 31q42 63 84 125q54 76 104 114
q64 50 137 50q19 0 39 -3q28 -9 44 -26q32 -27 32 -73q0 -64 -61 -130q-13 -14 -110 -99q-6 -6 -6 -15q0 -16 25 -52q35 -49 38 -55q55 -64 158 -193z" />
    <glyph glyph-name="S" unicode="S" horiz-adv-x="481" 
d="M439 599q-8 -18 -27 -18q-3 0 -5 1q-6 7 -13.5 24t-16.5 23q-9 1 -19 1q-51 0 -112 -37q-49 -34 -99 -68q-31 -29 -31 -58q0 -12 7 -21q22 -27 62 -40q24 -7 77.5 -13.5t78.5 -14.5q61 -20 84 -63q8 -24 8 -51q0 -35 -16 -81q-14 -37 -28 -73q-31 -87 -130 -158
q-31 -15 -63 -15q-30 0 -49 15q-47 39 -47 125q0 33 7 78q6 22 22 22q9 0 13 -10q-5 -57 -5 -72q0 -87 52 -116q7 -2 14 -2q25 0 58 28q59 74 59 185q0 41 -7 91q-21 52 -95 62q-60 2 -121 4q-36 12 -57 48q-19 33 -19 73q0 85 121 175q66 39 94 52q60 28 109 28
q27 0 50.5 -7.5t29.5 -31.5q16 -40 16 -64q0 -10 -2 -21z" />
    <glyph glyph-name="T" unicode="T" horiz-adv-x="590" 
d="M559 625q-2 -10 -12.5 -22t-15.5 -12q-61 5 -117 5q-171 0 -298 -45q-7 -4 -8 -13t6 -11q18 -6 18 -25q0 -23 -38 -23q-26 0 -47 19q-20 23 -20 75q0 32 7 49q38 64 194 63q83 0 166 1q99 -3 157 -21q17 -11 8 -40zM472 37q-8 -51 -16 -74q-14 -39 -42 -59
q-18 -11 -52 -5q-39 26 -54 78q-7 26 -14 97q13 149 27 224q22 121 67 206q12 17 36 23q14 3 27.5 -4.5t13.5 -18.5q-1 -50 -19 -125q-27 -111 -29 -124q-21 -117 -44 -287q-1 -8 11 -27q10 0 17.5 10t12.5 20.5t13 56.5q6 36 18 53q29 -1 29 -32q0 -6 -2 -12z" />
    <glyph glyph-name="U" unicode="U" horiz-adv-x="655" 
d="M617 64q5 -3 5 -10q0 -12 -13 -30t-24.5 -23.5t-23.5 -5.5q-36 0 -53 21q-29 35 -29 99q0 18 3 54.5t3 53.5q0 24 -4 41q-1 6 -7 8t-10 -4l-132 -154q-81 -83 -163 -108q-24 -7 -38 -7q-24 0 -49 23q-53 50 -53 178q0 84 23 208q19 89 38 177q6 13 12 26.5t17 19.5
q21 3 47 -32q22 -44 22 -98q0 -45 -19 -123q-20 -86 -23 -119q-1 -16 -14 -66q-11 -46 -11 -69q0 -46 41 -51q58 -7 109 41q21 20 79 98q38 52 83 133q38 70 75 139q12 22 37 22q9 0 17 -3q37 -24 37 -86q0 -24 -7 -64q-6 -45 -7 -57q1 -9 1 -20q0 -19 -6 -61.5t-6 -62.5
q0 -60 43 -88z" />
    <glyph glyph-name="V" unicode="V" horiz-adv-x="546" 
d="M534 410q-1 -10 -10.5 -16t-18.5 -12h-12q-30 -109 -59 -218q-40 -125 -123 -183q-10 -4 -21 -4q-43 0 -67 44q-141 257 -196 603q-1 7 -1 16q0 60 34 67q34 3 55 -25q16 -20 26 -61q7 -30 13 -61q37 -176 121 -523q2 -7 13 -10q10 -3 16 1q61 66 95 176q2 9 47 197
q-48 72 -48 132q0 35 17 64q18 23 80 21q27 -7 29 -35q1 -17 -1 -49q-2 -39 -2 -52q0 -45 13 -72z" />
    <glyph glyph-name="W" unicode="W" horiz-adv-x="874" 
d="M838 418q6 -4 6 -11q0 -9 -8.5 -18t-16.5 -10q-20 -2 -20 -19q-20 -157 -34 -213q-28 -118 -89 -192q-10 -9 -29 -11q-17 -1 -29 5q-68 46 -117 128q-32 54 -74 160q-45 117 -68 161q-17 2 -26 -18q-6 -16 -12 -33q-29 -95 -57 -190q-40 -107 -106 -159q-7 -4 -16 -4
q-26 0 -46 22q-61 93 -55 295q3 109 22 287q4 14 7 19q5 10 15 15q27 6 55 -39q29 -61 29 -136q0 -53 -20.5 -159t-20.5 -160q0 -40 8 -75q3 -9 11 -11q8 -3 14 1q53 73 84 181q15 55 42 201q23 128 47 197q22 25 29 25q29 0 43 -35q27 -67 94 -313q55 -197 118 -307
q13 -13 30 -7q27 18 43 62q13 37 25 74q30 115 35 248q-69 34 -69 136q0 22 3 55q1 11 12.5 23.5t18.5 12.5q47 5 65 -3q30 -23 30 -68q0 -8 -1.5 -25t-1.5 -26q0 -44 30 -66z" />
    <glyph glyph-name="X" unicode="X" horiz-adv-x="677" 
d="M640 482q5 -6 5 -13q0 -30 -39 -37q-35 -6 -71 39q-34 -26 -72 -72l-64 -86q7 -15 100 -159q79 -121 79 -147q0 -17 -18 -16q-25 1 -110 94l-116 128q-55 -73 -128 -207q-87 -161 -121 -213q-20 -31 -42 -31q-7 0 -8 6q-4 19 -4 39q0 52 36 116q32 52 64 105
q26 48 82 121q71 94 87 118q-44 72 -88 145q-50 87 -50 157q0 11 1.5 22t15.5 21.5t27 10.5q8 0 13 -5q36 -38 78 -128t79 -128q25 25 142 155q-10 53 9 85q26 35 62 38q43 -4 43 -48q0 -10 -2.5 -32.5t-2.5 -33.5q0 -29 13 -44z" />
    <glyph glyph-name="Y" unicode="Y" horiz-adv-x="579" 
d="M527 545q4 -56 4 -109q0 -372 -180 -602q-48 -38 -68 -38q-10 0 -20 5q-24 21 -24 61q0 20 8 60q56 167 124 233q9 0 11.5 -8t4.5 -15q-32 -64 -63 -127q-35 -76 -43 -137q2 -3 1.5 -15.5t8.5 -14.5q42 24 69 81q20 52 39 104q29 118 29 232q0 66 -10 129q-5 16 -17 16
q-4 0 -8 -4q-30 -31 -82 -97t-80 -94q-47 -48 -98 -73q-9 -3 -20 -3q-26 0 -47 16q-29 28 -37 82q-2 19 -4 92q-4 177 64 336q11 14 26 14q16 0 29.5 -15t16.5 -33q4 -29 4 -59q0 -65 -24 -164q-32 -131 -37 -162q2 -14 5 -28.5t17 -20.5q42 7 93 75q71 94 228 356
q31 19 51 9q16 -11 22 -37q3 -23 7 -45z" />
    <glyph glyph-name="Z" unicode="Z" horiz-adv-x="688" 
d="M654 78q0 -14 -13 -37q-16 -26 -38 -36q-7 -3 -13 -3q-8 0 -26 14.5t-38 13.5q-299 -11 -476 -115q-2 -1 -4 -1q-6 0 -11.5 6.5t-3.5 12.5q21 44 73 80q47 30 95 59q61 63 121 125q70 75 103 137l-32 -11q-37 -13 -61 -13q-14 0 -24 5q-5 4 -5 10q0 23 28 37t88 25
q54 11 56 13q37 84 37 114q0 16 -6 27q-20 25 -87 25q-105 0 -225 -53q-6 -15 -13 -31t-18 -17q-12 -2 -20.5 5t-6.5 18q2 53 9 78q13 41 46 56q128 58 270 58q45 0 89 -6q61 -9 73 -54q4 -49 -26 -113l-50 -105h43q26 -4 32 -21q3 -6 -38 -11q-55 -6 -72 -12
q-49 -62 -99 -123q-59 -73 -102 -115q-1 -11 7 -11q3 0 18 5q116 41 209 41q42 0 77 -8q14 -5 24 -26t10 -43z" />
    <glyph glyph-name="bracketleft" unicode="[" 
d="M286 -192q0 -4 -3 -4h-224q-8 0 -6 6l81 934q2 5 7 5h217q1 0 1 -1l-2 -26q-1 -2 -3 -2h-104q-16 0 -17 -17l-74 -850q-2 -20 9 -20h118q3 -1 3 -3z" />
    <glyph glyph-name="backslash" unicode="\" horiz-adv-x="546" 
d="M518 -153q-1 -5 -6 -5q-9 0 -23.5 14.5t-20.5 28.5q-64 142 -208 404q-8 14 -233 413q-8 15 -8 28q0 24 15 24q9 0 16 -10q79 -103 221 -336q153 -251 207 -377q7 -15 36 -66q16 -29 16 -55q0 -25 -12 -63z" />
    <glyph glyph-name="bracketright" unicode="]" 
d="M278 -190q-2 -6 -7 -6h-224q-3 0 -3 4l2 22q0 3 2 3h118q14 0 14 20l75 850q1 17 -14 17h-103q-4 0 -4 2l3 26q0 1 1 1h217q5 0 4 -5z" />
    <glyph glyph-name="asciicircum" unicode="^" horiz-adv-x="393" 
d="M210 613q43 -20 91.5 -86.5t48.5 -108.5q0 -14 -20 -14q-22 0 -32 19q-13 25 -44 64q-24 28 -47 57q-40 -41 -109 -127q-13 -19 -34 -19q-18 0 -18 12q0 4 2 8q95 184 162 195z" />
    <glyph glyph-name="underscore" unicode="_" horiz-adv-x="546" 
d="M546 -140h-546v58h546v-58z" />
    <glyph glyph-name="grave" unicode="`" horiz-adv-x="185" 
d="M62 501q20 -8 42 -33q38 -43 45 -50q26 -25 26 -39q0 -13 -9 -13q-22 0 -64 36q-31 20 -59.5 39t-28.5 36q0 12 19 19.5t29 4.5z" />
    <glyph glyph-name="a" unicode="a" 
d="M355 51q7 -6 7 -15q0 -10 -10.5 -22t-29.5 -12q-13 0 -26 5q-22 10 -32 38q-8 24 -15 48q-1 1 -2 1q-4 0 -22 -20q-21 -25 -30 -32l-36 -28q-21 -14 -42 -14q-34 0 -67 33q-29 29 -31 50q-2 16 -2 33q0 64 27.5 119.5t80.5 85.5q24 13 54 13q34 0 53 -19q9 -16 19 -31
q16 -23 33 -21q10 1 24 -10.5t14 -17.5q0 -10 -1.5 -35.5t-1.5 -39.5q0 -79 36 -109zM243 232q-13 0 -24 17t-18.5 19.5t-15.5 2.5q-18 0 -34 -11q-55 -40 -55 -121q0 -12 1 -24q4 -25 28 -34q7 -2 14 -2q25 0 56 32q17 18 35.5 55.5t18.5 55.5q0 10 -6 10z" />
    <glyph glyph-name="b" unicode="b" horiz-adv-x="360" 
d="M342 260q-15 -15 -33 -15q-6 0 -11 2q-22 5 -26 5q-12 0 -5 -11q36 -54 36 -113q0 -18 -5 -32q-39 -108 -117 -108q-39 0 -79 23.5t-51 54.5q-15 45 -15 99q0 16 16 160q1 4 -12 14t-16 15q-16 18 -1 35q21 28 43 65q8 56 26 106q23 68 49 68q41 0 33 -79
q-5 -48 -42 -162q-34 -104 -34 -166q0 -53 20 -101q30 -49 69 -49q7 0 14 2q26 10 40 40q12 24 12 50q0 17 -14 39q-17 26 -38 33q-14 2 -29 4q-23 5 -26 21q-4 28 21 46q12 9 49 22q23 8 53 8q51 0 73 -30q6 -9 7 -23q0 -15 -7 -23z" />
    <glyph glyph-name="c" unicode="c" horiz-adv-x="273" 
d="M245 68q-59 -67 -128 -67q-62 0 -93 55q-12 30 -12 63q0 87 73 156q50 47 90 47q27 0 43 -24q5 -8 5 -26q0 -30 -20 -35q-10 -3 -24 4t-20 7q-5 0 -11 -3q-60 -35 -63 -108q-1 -5 -1 -10q0 -26 27 -44q16 -9 35 -9q20 0 50 13q36 14 45 16q12 1 12 -14q0 -12 -8 -21z" />
    <glyph glyph-name="d" unicode="d" horiz-adv-x="316" 
d="M286 406q1 -8 -7 -19t-19 -13q-7 -1 -7 -5q9 -47 18 -95q10 -59 10 -100q0 -90 -47 -143q-35 -40 -92 -39q-25 0 -48 8q-67 25 -75 125q2 64 26 112q29 59 84 78q6 2 15 2q29 0 66 -21q4 0 6 4q-5 52 -73 132q-66 77 -66 124q0 34 25 72q9 9 21 -7q78 -108 160 -176
q11 -10 3 -39zM228 214q0 -2 -5 -2q-3 0 -6 6q-20 28 -28 35q-17 15 -41 12q-18 -2 -32.5 -16.5t-19.5 -30.5q-8 -27 -8 -56q0 -54 29 -81q14 -13 35 -13q16 0 29 7q49 25 49 102q0 15 -2 37z" />
    <glyph glyph-name="e" unicode="e" horiz-adv-x="262" 
d="M237 83q-1 -54 -75 -89q-14 -7 -31 -7q-30 0 -67 22q-52 40 -52 114q0 30 9 61q39 133 141 149q10 2 28.5 -4t28 -16.5t9.5 -28.5q0 -27 -22 -66q-26 -46 -116 -78q-11 -4 -5 -17q13 -63 51 -63q10 0 22 3q24 7 60 33q10 -3 19 -13zM162 259q1 5 -4 10.5t-11 3.5
q-21 -7 -41 -40q-19 -29 -19 -46q0 -5 3 -6q18 -2 42 24t30 54z" />
    <glyph glyph-name="f" unicode="f" horiz-adv-x="251" 
d="M236 296q2 -38 -37 -58q-13 -7 -56 -11q-8 -1 -8 -6q0 1 11 -29q47 -133 47 -262q0 -38 -4 -74q-4 -18 -16 -41q-16 -29 -32 -36q-3 -2 -8 -2q-16 0 -37 16.5t-24 28.5q-14 57 -14 130q0 43 7 132.5t7 133.5q0 3 -16 10q-22 9 -27 12q-18 11 -18 31q0 6 2 13
q5 17 20 18.5t28 1.5q10 2 13 11q6 84 12 169q10 94 53 148q9 9 22 9q14 0 25.5 -8t12.5 -15q3 -12 3 -26q0 -31 -20 -90q-12 -34 -21 -91q-12 -78 -15 -92q-1 -6 23 -6q5 1 23 6q15 5 23 5q20 0 21 -28zM139 -147q15 47 15 107q0 65 -20 165q-6 17 -10 17q-2 0 -2 -2
q-13 -68 -13 -151q0 -55 6 -108q1 -9 8 -20.5t12 -11.5q3 0 4 4z" />
    <glyph glyph-name="g" unicode="g" horiz-adv-x="415" 
d="M402 63q-1 -6 -33 -41t-33 -39q-14 -78 -28 -116q-23 -61 -65 -95q-6 -5 -13 -5q-12 0 -21.5 9t-9.5 21q1 48 25 100q14 31 52 91q2 39 5 77q1 44 -5 78q-75 -131 -153 -131q-27 0 -62 17q-42 27 -42 94q0 71 46.5 131.5t115.5 78.5q15 4 35 1q22 -4 22 -13
q-3 -19 -26 -24q-31 -7 -36 -12q-42 -18 -66 -86q-4 -11 -4 -36q0 -61 25 -76q11 -7 24 -7q18 0 36 13q57 41 57 103q0 8 -1 15q-14 6 -14 24q0 -7 5 34q8 12 22 12q10 0 18 -6q48 -24 60 -86q5 -28 4 -114q5 -4 10 -4q7 0 20 14.5t26 12.5q11 -6 4 -35z" />
    <glyph glyph-name="h" unicode="h" horiz-adv-x="360" 
d="M337 38q-3 -8 -14.5 -19.5t-19.5 -11.5q-21 -1 -44 8t-31 19q-12 25 -12 63q0 13 2 51q2 32 1 50q-4 13 -19 13q-12 0 -19 -12q-35 -34 -65 -93q-24 -49 -48 -99q-8 -10 -20 -10q-7 0 -13 4q-15 18 -17 51q-2 53 -3 59q16 234 20 264q19 150 68 246q5 14 16 14t22.5 -11
t11.5 -19q3 -72 -36 -199q-42 -132 -42 -197q0 -21 3 -42q7 -15 19 -6q30 23 69 85t68 82q7 4 15 4q29 0 42 -29q5 -31 1 -79q-5 -67 -5 -79q0 -32 7 -57q2 -4 26 -19q21 -12 17 -31z" />
    <glyph glyph-name="i" unicode="i" horiz-adv-x="197" 
d="M148 469q6 -25 -15 -47q-11 -9 -23 -9t-25 8q-17 10 -17 45q3 11 17.5 20t26.5 9q26 0 36 -26zM148 52q5 -3 -10 -25.5t-27 -26.5q-5 -1 -10 -1q-17 0 -34 11t-18 19q-8 28 -8 73q0 22 3 68q2 35 0 44q-20 7 -20 29q0 10 7 17q68 68 93 68q4 0 5 -3q5 -14 5 -30t-7 -48
t-7 -49q-7 -34 -7 -60q0 -58 35 -86z" />
    <glyph glyph-name="j" unicode="j" horiz-adv-x="175" 
d="M119 483q7 -10 7 -21q0 -15 -12 -36q-14 -10 -31 -10t-29 10q-11 15 -11 32q0 13 7 24q8 16 31 16q24 0 38 -15zM123 289q15 -83 15 -188q0 -102 -14 -188q-13 -90 -36 -126q-19 -23 -57 -12q-6 4 -7 12t4 10q34 13 41 59q1 41 2 83q7 184 -26 272q-4 5 -24 17
q-15 9 -15 18q0 6 6 13q54 67 83 67q21 0 28 -37z" />
    <glyph glyph-name="k" unicode="k" horiz-adv-x="316" 
d="M313 68q1 -12 -6 -31t-15 -26q-16 -12 -41 -2q-25 20 -53 54q-23 28 -46 57q-2 2 -4 2q-13 0 -45 -56q-2 -3 -15 -38q-9 -22 -25 -23q-11 -1 -21.5 17.5t-10.5 36.5q-2 234 43 489q1 2 18 45q10 27 26 39q41 -19 45 -97q-6 -36 -42 -161q-29 -98 -29 -163q0 -19 2 -38
q3 -9 6 -6q36 48 72 95q50 59 91 59q14 0 27 -6q11 -12 11 -25q0 -24 -46 -61q-51 -39 -53 -45q-3 -8 37.5 -54.5t50 -45.5t17.5 -2.5t6 -13.5z" />
    <glyph glyph-name="l" unicode="l" horiz-adv-x="185" 
d="M125 -5q-16 0 -53 14q-32 12 -43 47q-7 21 -8 67q-2 67 6 196q-19 16 -19 30q0 8 7 14q28 28 36 88q11 78 19 97q11 66 56 80q36 -23 36 -79q0 -39 -21 -87q-18 -41 -37 -82q-13 -141 -13 -166q0 -61 13 -108q5 -18 37 -34.5t32 -30.5q0 -12 -12.5 -29t-35.5 -17z" />
    <glyph glyph-name="m" unicode="m" horiz-adv-x="600" 
d="M578 27q-3 -10 -16.5 -18t-20.5 -8q-29 7 -41 12q-22 11 -28 29t-6 40q0 5 5 59q3 35 -3 58q-2 8 -12 8q-10 -1 -14 -6q-27 -32 -64 -90q-45 -69 -60 -90q-18 -17 -31 -4q-13 21 -13 49q0 17 8 58q7 38 5 59q-1 10 -2 19.5t-10 11.5q-5 1 -10 1q-25 0 -55 -41
q-19 -26 -49 -83.5t-51 -84.5q-4 -8 -14 -10q-9 -1 -13 5q-14 29 -14 79v24q1 16 1 23q0 79 -45 111q-2 1 -2 4q0 11 31.5 33t49.5 18q25 -9 25 -51q0 -4 -1 -13v-13q0 -38 16 -53q10 -5 18 11q36 47 106 137q14 15 36 15q26 0 45 -19q5 -6 -4 -133q3 -9 10 -9q3 0 23 13
q8 10 54 78q31 46 62 69q4 3 10 3q10 0 22 -7.5t14 -13.5q7 -25 7 -58q0 -4 -5 -83q-3 -51 4 -84q11 -10 24 -21t13 -21q0 -6 -5 -13z" />
    <glyph glyph-name="n" unicode="n" 
d="M371 52q2 -10 -10 -27t-19.5 -21t-14.5 -4q-21 0 -48 20q-28 25 -28 72q0 14 5 54q3 34 1 52q-1 8 -9 8t-19 -8q-35 -27 -74 -98q-41 -75 -70 -100q-2 -2 -5 -2q-6 0 -13 6.5t-7 11.5q-4 27 -4 97q1 63 -8 97q-2 6 -16 14t-14 15q0 4 2 8q5 11 30.5 29t36.5 18
q39 -5 39 -60v-14v-14q0 -30 8 -43q2 -3 5 -3q9 0 15 13q23 24 55 67q38 50 54 69q13 16 36 16q33 0 42 -28q1 -30 -6 -86q-7 -59 -7 -85q0 -22 3 -41q3 -10 19.5 -16t20.5 -17z" />
    <glyph glyph-name="o" unicode="o" horiz-adv-x="328" 
d="M313 279q0 -8 -22 -41q-5 -8 -15 -8q-6 0 -18 5t-15 5q-7 0 -5 -15q26 -33 26 -85q0 -43 -19 -74q-48 -78 -126 -72q-38 8 -69.5 38t-34.5 58q-1 11 -1 22q0 61 27.5 113.5t77.5 77.5q4 2 14 -2.5t9 -8.5q-5 -15 -22 -38q-20 -28 -24 -36q-14 -41 -14 -70q0 -15 3 -28
q9 -41 65 -41q9 0 17 2q37 7 50 58q4 51 -11 75q-4 11 -27.5 28t-23.5 30q0 6 3.5 13.5t25 21.5t39.5 14q77 -2 90 -42z" />
    <glyph glyph-name="p" unicode="p" horiz-adv-x="360" 
d="M329 225q-18 -142 -103 -208q-37 -19 -72 -5q-5 3 -6 14t4 15q18 2 52 13q59 54 55 135q-1 22 -19 24q-47 6 -74 -47q-38 -75 -54 -180q-6 -37 -19 -190q-7 -19 -33 -14q-16 22 -18 58q1 -34 2 65q0 22 1 71q1 45 1 69q0 131 -29 212q-3 7 -3 15q0 20 14 42q10 12 27 12
q29 0 38 -23t14 -89q5 -52 9 -47q34 48 67 96q49 56 108 50q39 -4 39 -66q0 -11 -1 -22z" />
    <glyph glyph-name="q" unicode="q" horiz-adv-x="360" 
d="M328 228q1 -65 -15 -199q-16 -130 -13 -198q0 -1 6 -12.5t6 -19.5q0 -9 -7 -16q-13 -13 -26 -13q-6 0 -10 5q-30 34 -30 102q0 13 1 38t1 36q0 15 2.5 48t2.5 50q0 27 -5 47l-64 -58q-39 -31 -74 -31q-15 0 -30 5q-51 26 -57 98q-6 66 33 126q35 55 96 85q18 7 36 7
q35 0 66 -28q-5 -40 32 -42q42 -3 49 -30zM240 211q-16 7 -23 35l-12 20t-15 10q-6 0 -14 -3q-28 -14 -50 -37q-27 -29 -29 -56q-5 -60 18 -82q16 -12 33 -12q12 0 22 6q45 26 70 119z" />
    <glyph glyph-name="r" unicode="r" horiz-adv-x="251" 
d="M228 205q2 -1 2 -4q0 -16 -26 -25q-12 -4 -27 9.5t-19 13.5q-8 0 -14 -17q-5 -20 -5 -44q0 -22 6 -64q7 -45 8 -65q-1 -7 -22 -6q-18 0 -31 6q-16 7 -26 47q-7 48 -14 95q-11 56 -46 75q-4 2 -4 8q0 13 19.5 35t28.5 25q4 1 8 1q13 0 31 -25q4 -6 8 -28.5t10 -32.5
q1 -2 3 -2q4 0 9.5 10.5t6.5 18.5v63q2 36 39 41q44 -4 44 -49q0 -7 -1 -21t-1 -21q0 -29 13 -44z" />
    <glyph glyph-name="s" unicode="s" horiz-adv-x="294" 
d="M267 133q2 -9 2 -19q0 -22 -13 -52q-19 -45 -20 -48q-15 -23 -39 -48q-36 -38 -56 -36q-38 3 -59 27q-24 27 -24 74q0 20 6 62q2 1 9.5 5.5t11.5 4.5q5 0 8 -6q5 -13 5 -33q0 -6 -1 -18v-18q0 -43 32 -55q36 2 52 61q0 7 2 25t2 27q0 35 -25 43q-16 9 -58 13t-57 11
q-28 12 -32 45q-1 78 119 142q6 0 26 3.5t31 3.5q32 0 39 -26q2 -49 -24 -66q-13 1 -24 15q-38 -9 -72 -46q-2 -4 -2 -9q0 -16 18 -24q40 -8 79 -17q45 -12 64 -41z" />
    <glyph glyph-name="t" unicode="t" horiz-adv-x="240" 
d="M221 292q5 -21 -11 -53q-11 -14 -38.5 -19.5t-34.5 -13.5q1 -10 10 -66q6 -44 6 -69q0 -60 -34 -78q-4 -2 -7 -2q-18 0 -36 79q-5 24 -7 71q-1 59 -2 71q-7 7 -27.5 15.5t-27.5 21.5q-1 5 -1 9q0 30 26 38q4 2 16 0q12 -1 18 1.5t3 15.5q-2 8 -2 20q0 37 10 80
q12 51 30 77q1 3 6 3q9 0 23.5 -10.5t16.5 -21.5q3 -16 3 -33q0 -22 -8 -64t-8 -64q5 -3 11 -3q9 0 26.5 7.5t23.5 7.5q13 0 15 -20z" />
    <glyph glyph-name="u" unicode="u" horiz-adv-x="415" 
d="M391 47q4 -9 -6 -26t-25 -21q-47 -7 -77 35q0 1 -22 142q-5 0 -30 -46q-30 -58 -55 -86q-40 -47 -83 -47q-45 0 -54 19q-21 42 -21 99q0 56 41 206q9 9 21 9q17 0 35 -15q15 -14 15 -22q-2 -29 -19 -88q-15 -55 -15 -88q0 -11 1 -22q8 -18 29 -18q6 0 10 2q41 34 84 119
t74 114q5 5 15 4q11 0 14 -6q22 -31 22 -87q0 -16 -2 -49t-2 -49q0 -15 1 -28q0 -9 22 -24.5t27 -26.5z" />
    <glyph glyph-name="v" unicode="v" horiz-adv-x="338" 
d="M325 304q1 -3 1 -9q0 -45 -32 -56q-16 -3 -22 -23q-1 -6 -4 -36q1 -53 -21 -99q-25 -51 -69 -74q-10 -7 -22 -7t-18 8q-26 35 -62 121l-34 80q-24 11 -24 23q0 5 3 11q19 37 45 37q3 0 7 -1q24 -4 36 -30.5t23 -51.5q15 -34 44 -102q4 -6 12 -7q8 -2 11 2q31 29 31 112
q0 21 -2 26q-4 14 -4 27q0 42 38 68q4 4 16 4q34 0 47 -23z" />
    <glyph glyph-name="w" unicode="w" horiz-adv-x="491" 
d="M436 246q-4 -3 -17.5 -1.5t-14.5 -9.5q-5 -23 -5 -58q0 -10 1 -29v-29q0 -88 -44 -119q-6 -1 -11 -1q-35 0 -69 49l-38 56q-5 2 -9 2q-21 0 -55 -40q-40 -48 -56 -57q-22 -20 -65 -12q-29 9 -30 37q-5 154 33 292q2 7 13 7q13 0 31 -7.5t20 -11.5q6 -20 6 -42
q0 -30 -18 -99q-17 -65 -14 -102q1 -9 10 -10q8 -1 15 3q23 22 71 89q40 57 49 59q27 5 51 -24q14 -17 34 -57q16 -31 21 -31q3 0 5 4q14 28 14 69q0 13 -2 40t-2 40q0 41 16 68q10 9 26 9q6 0 20 -2t21 -2q19 -13 19 -37q0 -9 -3 -17.5t-23 -25.5z" />
    <glyph glyph-name="x" unicode="x" horiz-adv-x="338" 
d="M325 286q3 -17 -9 -38t-29 -21q-6 0 -13.5 9t-11.5 9t-8 -5q-48 -57 -48 -59q1 -6 41 -77t40 -90q0 -12 -17 -12q-21 0 -59 38q-28 29 -57 58q-34 -33 -84 -132q2 -5 2 -8q0 -10 -12 -18q-17 -11 -18 -13q-27 -5 -27 24q0 7 2 13q40 74 106 174q-3 22 -30 68
q-25 42 -25 66q0 17 10 34q3 6 14 6q27 0 42 -18q29 -35 44 -62q1 -2 3 -2q5 0 29 30q50 64 88 64q24 0 27 -38z" />
    <glyph glyph-name="y" unicode="y" 
d="M349 272q0 -62 -19 -221q-18 -145 -14 -224q10 -18 10 -26q0 -6 -3 -11q-7 -20 -39 -8q-31 38 -31 115q0 19 2 57t2 55q-1 22 5.5 73.5t6.5 65.5q0 20 -7 20q-10 1 -55 -69q-50 -79 -53 -82q-14 -11 -28 -11q-7 0 -11 3q-38 38 -62 102q-4 13 -34 116q-3 32 -3 40
q0 35 19 48q16 4 28 -9l18 -24q19 -34 36 -96q19 -72 30 -97q6 -10 9 0l64 112q39 66 79 102q36 2 50 -31z" />
    <glyph glyph-name="z" unicode="z" horiz-adv-x="338" 
d="M313 203q-17 -7 -66 -19q-40 -9 -37 -12q14 -25 28 -49q17 -31 17 -54q0 -18 -9 -35q-38 -67 -99 -67q-48 0 -75 33q-10 12 -10 29q0 25 23 63q21 30 41 59q2 3 3 5q0 1 -17.5 8.5t-14.5 24.5q4 13 27 17q36 6 40 8t21.5 32.5t17.5 44.5q0 6 -4 8q-16 8 -33 8
q-22 0 -60 -19q-42 -21 -59 -24q-22 -4 -31 20q-8 56 12 65q83 37 139 38q64 0 90 -49q3 -5 3 -13q0 -17 -15 -51q-23 -51 -24 -55q0 -1 3 -1q21 0 89 15q5 0 6 -14q0 -13 -6 -16zM216 93q-7 15 -28 41q-9 7 -16 7q-12 0 -18 -19q-5 -15 -9 -29l-6 -28q0 -12 13 -21
q14 -9 39.5 3t25.5 37q0 5 -1 9z" />
    <glyph glyph-name="braceleft" unicode="{" 
d="M303 -185q-3 -11 -20 -11q-124 0 -174 43q-43 38 -37 117q4 54 30 117t29 91q1 11 1 21q0 77 -66 82q-15 1 -15 13q2 13 17 13q43 0 62 25q17 21 21 68q3 31 -12.5 95.5t-12.5 100.5q7 79 60 117q58 42 180 42q18 0 18 -9q-3 -12 -10 -12q-62 0 -98 -32.5t-40 -88.5
q-3 -35 5 -86.5t6 -77.5q-8 -91 -69 -121q-30 -15 -33 -17q-15 -9 -16 -17q-1 -10 14 -19.5t29 -18.5q54 -44 47 -118q-2 -27 -19 -82.5t-20 -93.5q-10 -130 116 -130q7 0 7 -11z" />
    <glyph glyph-name="bar" unicode="|" horiz-adv-x="363" 
d="M219 -123q0 -10 -3 -10h-65q-7 0 -7 10v864q0 9 7 9h62q6 0 6 -13v-860z" />
    <glyph glyph-name="braceright" unicode="}" 
d="M331 288q0 -16 -18 -16q-73 0 -80 -91q-2 -30 10 -88q13 -64 13 -102q0 -14 -1 -28q-7 -79 -60 -117q-58 -42 -180 -42q-17 0 -16 11q0 11 8 11q128 0 138 120q2 20 2 40q0 30 -7 80q-5 42 -3 65q8 90 68 121q17 8 34 17q14 9 15 19q1 8 -13.5 17.5t-29.5 19.5
q-53 42 -48 117q2 30 20 83t20 82q5 54 -25.5 87.5t-91.5 33.5q-7 0 -6 12q0 9 18 9q124 0 175 -43q45 -39 38 -117q-3 -40 -29 -97.5t-29 -89.5q-8 -97 62 -103q18 -2 16 -11z" />
    <glyph glyph-name="asciitilde" unicode="~" horiz-adv-x="404" 
d="M379 275q-41 -93 -112 -93q-51 0 -94.5 17t-48.5 17q-15 0 -22 -16t-14.5 -30t-29.5 -9q-21 13 -21 20q0 5 4 13q21 60 52 83q25 17 66 17q40 0 87 -17t55 -17q10 0 14 8q7 14 13 28q7 19 31 12q25 -2 25 -18q0 -7 -5 -15z" />
    <glyph glyph-name="nonbreakingspace" unicode="&#xa0;" horiz-adv-x="240" 
 />
    <glyph glyph-name="exclamdown" unicode="&#xa1;" horiz-adv-x="218" 
d="M180 569q-12 -25 -43 -25t-47 24q-10 15 -10 34q0 26 16 42t39 16t39 -16q15 -20 15 -44q0 -17 -9 -31zM176 286q-8 -100 -34 -266q-7 -15 -9 -20q-7 -10 -16 -14q-30 -5 -53 41q-21 43 -21 93q0 53 36 161t36 163q0 26 -5 50q-1 5 13 14t27 9q16 0 18 -17q18 -37 18 -87
q0 -3 -10 -127z" />
    <glyph glyph-name="cent" unicode="&#xa2;" horiz-adv-x="328" 
d="M298 173q7 1 7 -7q0 -10 -9 -21q-45 -54 -99 -74v-28q0 -40 -19 -40q-17 0 -17 38v23h-13q-68 0 -106 62q-13 36 -13 74q0 105 86 182q21 23 46 36v31q0 37 17 37q19 0 19 -37v-14q11 4 22 4q29 0 45 -26q5 -9 5 -27q0 -37 -29 -37q-8 0 -22 6.5t-21 6.5v-223
q21 3 55.5 17t45.5 17zM161 140v203q-56 -45 -59 -119q-2 -8 -2 -16q0 -38 38 -58q9 -7 23 -10z" />
    <glyph glyph-name="sterling" unicode="&#xa3;" horiz-adv-x="524" 
d="M503 88q2 -32 -21 -62q-18 -25 -45 -39q-35 -12 -74 -12q-45 0 -111 18q-101 28 -108 29q-14 3 -42.5 -11t-41.5 -14q-17 0 -29.5 15t-3.5 42q10 31 50 31h18q12 -1 18 -1q41 0 48 35q3 16 30 101q-52 -3 -101 -21q-4 0 -4 -5q0 -4 4 -5q9 -6 9 -14q0 -6 -5 -9
q-20 -12 -41 6q-8 12 -9 35q-1 20 3 31q19 33 104 33h58q34 105 68 173q16 33 46 57q38 31 77 26q21 -3 25 -24q5 -28 5 -60q0 -94 -40 -94q-18 0 -33 30.5t-28 30.5q-6 0 -13 -4q-11 -8 -57 -135q43 -2 62 -11q12 -6 5 -20q-1 -11 -14 -20q-31 4 -72 4q-36 -103 -48 -124
q-2 -5 -2 -8q0 -17 41 -21h65q15 0 49 -3.5t51 -3.5q62 0 86 38q2 3 6 3q14 0 15 -17z" />
    <glyph glyph-name="yen" unicode="&#xa5;" horiz-adv-x="437" 
d="M395 396q-6 -17 -29 -26h-2q-7 -15 -29 -78q-18 -48 -36 -75q24 -1 51 -13q5 -2 10 -11t3 -13q-9 -15 -23 -15q-21 3 -77 3q-6 -6 -8 -10q1 -11 7 -76q3 -28 -6 -68q-11 -51 -33 -51q-13 0 -24 32q-9 25 -12 50l-14 120q-37 -6 -69 -18q-5 -1 -5 -5t5 -5q9 -6 9 -15
q0 -5 -6.5 -9t-14.5 -4q-12 0 -26 10q-9 13 -10 36q-1 21 4 30q19 31 87 34q-76 129 -109 286q-2 18 6 34q8 20 26 23q33 3 52 -30q11 -27 22 -53q22 -86 70 -259h29q27 32 43 81q13 43 25 86q-28 40 -28 76q0 22 11 40q17 14 62 13q22 -1 31 -29q0 6 -2 -43q-1 -30 10 -48z
" />
    <glyph glyph-name="brokenbar" unicode="&#xa6;" horiz-adv-x="546" 
d="M519 86h-491v492h491v-492zM476 130v405h-405v-405h405z" />
    <glyph glyph-name="section" unicode="&#xa7;" horiz-adv-x="306" 
d="M270 561q-2 -6 -9.5 -9.5t-11.5 -0.5q-3 10 -16 28q-34 4 -72 -18q-32 -22 -64 -43q-19 -17 -19 -35q0 -6 4 -12q17 -22 59 -29q67 -11 71 -12q34 -11 49 -36q5 -15 5 -31q0 -23 -27 -91q-17 -42 -32 -56q2 -2 5 -2q38 -18 49 -37q5 -15 5 -30q0 -21 -27 -91
q-21 -55 -76 -94q-18 -9 -37 -9q-17 0 -29 9q-28 22 -28 74q0 21 5 46q3 13 12 13q6 0 9 -7q-3 -38 -3 -41q0 -40 30 -56q18 -4 40 15q37 45 37 102q0 20 -4 48q-13 30 -56 37q-37 1 -73 3q-32 10 -38 44q-5 14 -5 27q0 43 72 99q10 8 39 18q19 8 39 15q-18 10 -53 11l-54 2
q-32 13 -38 45q-5 15 -5 29q0 53 72 102q67 46 116 46q17 0 32.5 -4t17.5 -18q12 -32 9 -51zM195 373q0 1 -1 3q-42 -23 -99 -75q-17 -15 -17 -34q0 -7 4 -13q20 -25 91 -33q26 40 26 98q0 23 -4 54z" />
    <glyph glyph-name="dieresis" unicode="&#xa8;" horiz-adv-x="325" 
d="M282 412q0 -20 -13.5 -34.5t-32.5 -14.5q-20 0 -33.5 14.5t-13.5 34.5q0 19 13.5 32.5t33.5 13.5q19 0 32.5 -13.5t13.5 -32.5zM136 412q0 -20 -13.5 -34.5t-33.5 -14.5q-19 0 -32 14.5t-13 34.5q0 19 13 32.5t32 13.5q20 0 33.5 -13.5t13.5 -32.5z" />
    <glyph glyph-name="copyright" unicode="&#xa9;" horiz-adv-x="706" 
d="M657 321q2 -130 -87.5 -221t-217.5 -92t-220.5 88.5t-93.5 217.5q-2 128 88 221t217 94q129 1 220.5 -90t93.5 -218zM618 321q-1 109 -83 189t-192 79q-109 -1 -189 -83t-79 -192q1 -109 82.5 -188t193.5 -79q110 0 189 80.5t78 193.5zM500 211q-12 -25 -35 -43
q-60 -57 -134 -57q-41 0 -77 17q-41 20 -57 53q-18 37 -18 81q0 68 39 128q68 104 194 153q20 3 38 -17q5 -13 5 -27q0 -25 -20 -55q-1 -2 -39 -50q-15 -13 -24 -13q-18 0 -18 18q0 6 9 18.5t7 19.5q-3 5 -18 2q-107 -75 -107 -189q0 -27 7.5 -53t39.5 -40q27 -12 57 -12
q61 0 133 83q4 1 6 1q6 0 8 -6z" />
    <glyph glyph-name="minus" unicode="&#xad;" horiz-adv-x="404" 
d="M360 228q0 -20 -111 -25q-22 -1 -75 -6q-45 -5 -66 -5q-39 0 -55 12q-4 4 -4 10q0 12 11.5 27t22.5 18q31 9 83 9q33 0 124 -7q70 -5 70 -33z" />
    <glyph glyph-name="minus" unicode="&#x2212;" horiz-adv-x="404" 
d="M360 228q0 -20 -111 -25q-22 -1 -75 -6q-45 -5 -66 -5q-39 0 -55 12q-4 4 -4 10q0 12 11.5 27t22.5 18q31 9 83 9q33 0 124 -7q70 -5 70 -33z" />
    <glyph glyph-name="registered" unicode="&#xae;" horiz-adv-x="706" 
d="M657 321q2 -130 -87.5 -221t-217.5 -92t-220.5 88.5t-93.5 217.5q-2 128 88 221t217 94q129 1 220.5 -90t93.5 -218zM618 321q-1 109 -83 189t-192 79q-109 -1 -189 -83t-79 -192q1 -109 82.5 -188t193.5 -79q110 0 189 80.5t78 193.5zM540 161q1 -2 1 -4q0 -12 -14 -10
q-45 6 -112 72q-25 24 -73 78q-3 4 -3 9q0 12 24 32q20 14 39 28q65 39 71 95q0 29 -31 29q-27 0 -73 -48q-39 -42 -63 -84t-48 -107q-38 -107 -40 -111q-7 -17 -29 -6q-8 10 -8 23q0 -2 7 38q25 148 25 218q0 20 -1 40q-4 8 -17 19q-3 2 -6 2q-7 0 -15 -14q-3 -13 -5 -48
q-1 -30 -8 -46q-3 -1 -6 -1q-6 0 -6 11q-1 17 -2 19q0 86 37 102q24 6 41 -25q12 -22 21 -106q0 -18 4 -18q1 0 13 17q24 36 49 72q31 44 59 65q37 29 78 29q11 0 21.5 -3t25.5 -15q22 -18 17 -52q-6 -35 -38 -68q-7 -8 -58 -51q-4 -3 -4 -9q0 -9 15 -30q20 -28 21 -31
q31 -37 91 -111z" />
    <glyph glyph-name="macron" unicode="&#xaf;" horiz-adv-x="262" 
d="M226 368q0 -5 -9 -5h-174q-7 0 -7 5v43q0 5 7 5h175q8 0 8 -5v-43z" />
    <glyph glyph-name="macron" unicode="&#x2c9;" horiz-adv-x="262" 
d="M226 368q0 -5 -9 -5h-174q-7 0 -7 5v43q0 5 7 5h175q8 0 8 -5v-43z" />
    <glyph glyph-name="degree" unicode="&#xb0;" horiz-adv-x="218" 
d="M199 503q0 -35 -26 -60t-63 -25q-38 0 -66 27.5t-28 64.5q0 40 24.5 65t63.5 25q40 0 67.5 -28t27.5 -69zM151 507q0 45 -42 45q-43 0 -43 -43q0 -19 12.5 -31.5t31.5 -12.5q41 0 41 42z" />
    <glyph glyph-name="acute" unicode="&#xb4;" horiz-adv-x="185" 
d="M173 477q0 -17 -27 -35l-60 -40q-47 -36 -64 -36q-9 0 -9 13q0 14 26 39q5 5 45 50q22 25 42 33q10 3 28.5 -4.5t18.5 -19.5z" />
    <glyph glyph-name="paragraph" unicode="&#xb6;" horiz-adv-x="437" 
d="M402 588h-52l-51 -580q-1 -13 -23 -13t-21 13q5 67 50 580h-52l-51 -580q-1 -13 -24 -13t-22 13q4 59 27 313q-72 3 -108 43t-30 110q7 79 64 120q47 33 109 33h189q10 0 10 -15q0 -24 -15 -24z" />
    <glyph glyph-name="periodcentered" unicode="&#xb7;" horiz-adv-x="666" 
d="M374 321q12 -15 12 -35q0 -23 -16.5 -39t-39.5 -16q-22 0 -38.5 17.5t-16.5 40.5q0 17 9 31q12 25 43 25t47 -24z" />
    <glyph glyph-name="periodcentered" unicode="&#x2219;" horiz-adv-x="666" 
d="M374 321q12 -15 12 -35q0 -23 -16.5 -39t-39.5 -16q-22 0 -38.5 17.5t-16.5 40.5q0 17 9 31q12 25 43 25t47 -24z" />
    <glyph glyph-name="cedilla" unicode="&#xb8;" horiz-adv-x="220" 
d="M172 -76q0 -62 -115 -62q-14 0 -14 14q0 8 23 8q52 0 52 34q0 28 -46 40l35 42l41 -2l-20 -23q20 0 32 -17t12 -34z" />
    <glyph glyph-name="questiondown" unicode="&#xbf;" horiz-adv-x="513" 
d="M347 571q-12 -25 -43 -25t-47 24q-10 15 -10 34q0 26 16 42.5t38 16.5q24 0 40 -16q14 -19 14 -43q0 -17 -8 -33zM486 63q2 -26 -15 -41q-50 -36 -127 -36q-37 0 -137 17q-81 25 -121 55q-59 45 -62 115q-3 60 40 95q47 22 113 65.5t79 62.5q16 23 16 71q0 23 -5 34
q-1 2 -1 4q0 13 31 13q30 0 38 -11q22 -28 22 -52q0 -3 -6 -43q-9 -61 -48 -91q-21 -16 -69 -40.5t-68 -40.5q-34 -25 -46 -58q-4 -20 11 -38t39 -27l86 -24q52 -14 89 -14q43 0 78 18q5 10 6.5 28t5.5 27q2 5 15 3q14 -2 21 -9q19 -32 15 -83z" />
    <glyph glyph-name="Agrave" unicode="&#xc0;" horiz-adv-x="874" 
d="M849 72q0 -31 -2 -40q-4 -22 -21 -27q-7 -4 -15 -4q-9 0 -22 5q-17 6 -22 7q-28 14 -41 53q-20 62 -21 64q-16 45 -37 154q-21 104 -41 155q-11 19 -39 19q-10 0 -19 -4q-108 -68 -301 -293q-95 -115 -190 -229q-9 -6 -23 -1t-14 17q-1 53 42 100q3 3 6 3t8.5 -10
t11.5 -10q3 0 6 3q107 149 214 299q128 177 240 266q23 22 54 22q24 0 38 -18q35 -45 53 -124q16 -68 31 -136q7 -22 28 -114q16 -70 34 -112q5 -12 21.5 -23t20.5 -22zM640 294q-9 -77 -118 -131q-37 -14 -76 -14q-35 0 -59 12q-32 34 -30 58q8 28 35 38q17 6 56 8t55 8
q20 1 66 19q41 16 67 13q4 -1 4 -11zM598 809q20 -8 42 -33q38 -43 45 -50q26 -25 26 -39q0 -13 -9 -13q-22 0 -64 36q-31 20 -59.5 39t-28.5 36q0 12 19 19.5t29 4.5z" />
    <glyph glyph-name="Aacute" unicode="&#xc1;" horiz-adv-x="874" 
d="M849 72q0 -31 -2 -40q-4 -22 -21 -27q-7 -4 -15 -4q-9 0 -22 5q-17 6 -22 7q-28 14 -41 53q-20 62 -21 64q-16 45 -37 154q-21 104 -41 155q-11 19 -39 19q-10 0 -19 -4q-108 -68 -301 -293q-95 -115 -190 -229q-9 -6 -23 -1t-14 17q-1 53 42 100q3 3 6 3t8.5 -10
t11.5 -10q3 0 6 3q107 149 214 299q128 177 240 266q23 22 54 22q24 0 38 -18q35 -45 53 -124q16 -68 31 -136q7 -22 28 -114q16 -70 34 -112q5 -12 21.5 -23t20.5 -22zM640 294q-9 -77 -118 -131q-37 -14 -76 -14q-35 0 -59 12q-32 34 -30 58q8 28 35 38q17 6 56 8t55 8
q20 1 66 19q41 16 67 13q4 -1 4 -11zM701 771q0 -17 -27 -35l-60 -40q-47 -36 -64 -36q-9 0 -9 13q0 14 26 39q5 5 45 50q22 25 42 33q10 3 28.5 -4.5t18.5 -19.5z" />
    <glyph glyph-name="Acircumflex" unicode="&#xc2;" horiz-adv-x="874" 
d="M849 72q0 -31 -2 -40q-4 -22 -21 -27q-7 -4 -15 -4q-9 0 -22 5q-17 6 -22 7q-28 14 -41 53q-20 62 -21 64q-16 45 -37 154q-21 104 -41 155q-11 19 -39 19q-10 0 -19 -4q-108 -68 -301 -293q-95 -115 -190 -229q-9 -6 -23 -1t-14 17q-1 53 42 100q3 3 6 3t8.5 -10
t11.5 -10q3 0 6 3q107 149 214 299q128 177 240 266q23 22 54 22q24 0 38 -18q35 -45 53 -124q16 -68 31 -136q7 -22 28 -114q16 -70 34 -112q5 -12 21.5 -23t20.5 -22zM640 294q-9 -77 -118 -131q-37 -14 -76 -14q-35 0 -59 12q-32 34 -30 58q8 28 35 38q17 6 56 8t55 8
q20 1 66 19q41 16 67 13q4 -1 4 -11zM738 657q-1 -2 -4 -2q-17 0 -53 35q-13 11 -38 31q-15 -9 -45 -31q-40 -35 -59 -35q-3 0 -5 3t-2 7q0 15 27 42q7 7 43 50q21 25 39 33q5 5 16 0q17 -8 33 -33q29 -44 34 -50q18 -23 18 -36q0 -8 -4 -14z" />
    <glyph glyph-name="Atilde" unicode="&#xc3;" horiz-adv-x="874" 
d="M849 72q0 -31 -2 -40q-4 -22 -21 -27q-7 -4 -15 -4q-9 0 -22 5q-17 6 -22 7q-28 14 -41 53q-20 62 -21 64q-16 45 -37 154q-21 104 -41 155q-11 19 -39 19q-10 0 -19 -4q-108 -68 -301 -293q-95 -115 -190 -229q-9 -6 -23 -1t-14 17q-1 53 42 100q3 3 6 3t8.5 -10
t11.5 -10q3 0 6 3q107 149 214 299q128 177 240 266q23 22 54 22q24 0 38 -18q35 -45 53 -124q16 -68 31 -136q7 -22 28 -114q16 -70 34 -112q5 -12 21.5 -23t20.5 -22zM640 294q-9 -77 -118 -131q-37 -14 -76 -14q-35 0 -59 12q-32 34 -30 58q8 28 35 38q17 6 56 8t55 8
q20 1 66 19q41 16 67 13q4 -1 4 -11zM731 754q-25 -71 -70 -71q-36 0 -68 12t-36 12q-18 0 -27 -30q-2 -12 -17 -4q-13 4 -11 14q23 77 74 77q29 0 64 -13t41 -13q11 0 22 27q0 7 15 5q18 -3 13 -16z" />
    <glyph glyph-name="Adieresis" unicode="&#xc4;" horiz-adv-x="874" 
d="M849 72q0 -31 -2 -40q-4 -22 -21 -27q-7 -4 -15 -4q-9 0 -22 5q-17 6 -22 7q-28 14 -41 53q-20 62 -21 64q-16 45 -37 154q-21 104 -41 155q-11 19 -39 19q-10 0 -19 -4q-108 -68 -301 -293q-95 -115 -190 -229q-9 -6 -23 -1t-14 17q-1 53 42 100q3 3 6 3t8.5 -10
t11.5 -10q3 0 6 3q107 149 214 299q128 177 240 266q23 22 54 22q24 0 38 -18q35 -45 53 -124q16 -68 31 -136q7 -22 28 -114q16 -70 34 -112q5 -12 21.5 -23t20.5 -22zM640 294q-9 -77 -118 -131q-37 -14 -76 -14q-35 0 -59 12q-32 34 -30 58q8 28 35 38q17 6 56 8t55 8
q20 1 66 19q41 16 67 13q4 -1 4 -11zM770 706q0 -20 -13.5 -34.5t-32.5 -14.5q-20 0 -33.5 14.5t-13.5 34.5q0 19 13.5 32.5t33.5 13.5q19 0 32.5 -13.5t13.5 -32.5zM624 706q0 -20 -13.5 -34.5t-33.5 -14.5q-19 0 -32 14.5t-13 34.5q0 19 13 32.5t32 13.5q20 0 33.5 -13.5
t13.5 -32.5z" />
    <glyph glyph-name="Aring" unicode="&#xc5;" horiz-adv-x="874" 
d="M849 72q0 -31 -2 -40q-4 -22 -21 -27q-7 -4 -15 -4q-9 0 -22 5q-17 6 -22 7q-28 14 -41 53q-20 62 -21 64q-16 45 -37 154q-21 104 -41 155q-11 19 -39 19q-10 0 -19 -4q-108 -68 -301 -293q-95 -115 -190 -229q-9 -6 -23 -1t-14 17q-1 53 42 100q3 3 6 3t8.5 -10
t11.5 -10q3 0 6 3q107 149 214 299q128 177 240 266q23 22 54 22q24 0 38 -18q35 -45 53 -124q16 -68 31 -136q7 -22 28 -114q16 -70 34 -112q5 -12 21.5 -23t20.5 -22zM640 294q-9 -77 -118 -131q-37 -14 -76 -14q-35 0 -59 12q-32 34 -30 58q8 28 35 38q17 6 56 8t55 8
q20 1 66 19q41 16 67 13q4 -1 4 -11zM744 712q0 -33 -31 -53q-27 -17 -67 -17q-37 0 -58.5 16.5t-19.5 44.5q2 31 30 50t67 19q37 0 59.5 -16.5t19.5 -43.5zM703 708q3 35 -41 35q-18 0 -34 -8q-20 -11 -21 -27q-1 -17 13.5 -27.5t30.5 -10.5q49 0 52 38z" />
    <glyph glyph-name="AE" unicode="&#xc6;" horiz-adv-x="1212" 
d="M1188 229q9 -15 9 -30q0 -20 -16 -46q-15 -20 -30 -41q-42 -62 -107 -97.5t-137 -35.5q-34 0 -68 9q-51 13 -92.5 57t-45.5 95q-13 40 -34 149q-20 98 -40 150q-11 19 -39 19q-10 0 -19 -4q-108 -68 -301 -293q-95 -115 -190 -229q-9 -6 -23 -1t-14 17q-1 53 42 100
q3 3 6 3t8.5 -10t11.5 -10q3 0 6 3q107 149 214 299q128 177 240 266q23 22 54 22q24 0 38 -18q36 -47 55 -124q14 -68 29 -136q3 -7 6 -24q26 40 48 67q1 6 1 11q0 23 -34.5 54.5t-29.5 63.5q10 63 71.5 121.5t124.5 58.5q28 0 71 -18q35 20 50 20t25 -13q5 -17 5 -37
q0 -56 -37 -108q-17 -9 -40 -5q-55 27 -55 63q0 9 3 20q-9 26 -37 26q-8 0 -15 -3q-36 -8 -64 -40.5t-39 -70.5q2 -39 63 -76t61 -73q0 -10 -3 -22q-14 -24 -53 -66t-53 -65q-25 -38 -25 -78q0 -13 3 -27q12 -31 36 -55q27 -27 56 -33q18 -4 36 -4q117 0 226 158q7 4 15 24
t18 20q4 0 9 -3zM640 294q-9 -77 -118 -131q-37 -14 -76 -14q-35 0 -59 12q-32 34 -30 58q8 28 35 38q17 6 56 8t55 8q20 1 66 19q41 16 67 13q4 -1 4 -11z" />
    <glyph glyph-name="Ccedilla" unicode="&#xc7;" horiz-adv-x="535" 
d="M509 145q-11 -32 -51 -73q-96 -99 -205 -99q-63 0 -120 33q-60 34 -83 89q-26 62 -26 135q0 116 61 221q106 181 292 261q9 4 31.5 -6.5t26.5 -21.5q8 -22 8 -46q0 -43 -31 -95q-7 -13 -60 -85q-20 -22 -35 -22q-11 0 -20 9.5t-9 20.5q0 10 14.5 32t11.5 34q-6 9 -27 3
q-74 -57 -118 -142q-47 -89 -47 -183q0 -47 12 -92q17 -61 120 -81q14 -3 28 -3q97 0 200 141q5 2 9 2q10 0 14 -13q2 -9 4 -19zM259 -97q0 -62 -115 -62q-14 0 -14 14q0 8 23 8q52 0 52 34q0 28 -46 40l35 42l41 -2l-20 -23q20 0 32 -17t12 -34z" />
    <glyph glyph-name="Egrave" unicode="&#xc8;" horiz-adv-x="546" 
d="M513 229q9 -15 9 -30q0 -20 -16 -46q-15 -20 -30 -41q-42 -61 -107 -97t-137 -36q-35 0 -69 9q-89 22 -129 116q-9 29 -9 60q0 97 98 222q2 7 2 13q0 21 -36 54q-33 30 -28 62q10 63 71 121.5t125 58.5q29 0 71 -18q37 20 50 20q15 0 25 -13q5 -17 5 -36q0 -57 -38 -109
q-17 -8 -39 -5q-56 27 -56 64q0 9 3 19q-7 26 -37 26q-8 0 -15 -3q-35 -8 -65 -42q-26 -31 -38 -69q2 -39 63.5 -76t61.5 -73q0 -10 -3 -22q-14 -24 -53 -66t-53 -65q-25 -38 -25 -78q0 -13 3 -27q29 -74 93 -88q18 -4 36 -4q116 0 225 158q6 4 14.5 24t18.5 20q4 0 9 -3z
M212 861q20 -8 42 -33q38 -43 45 -50q26 -25 26 -39q0 -13 -9 -13q-22 0 -64 36q-31 20 -59.5 39t-28.5 36q0 12 19 19.5t29 4.5z" />
    <glyph glyph-name="Eacute" unicode="&#xc9;" horiz-adv-x="546" 
d="M513 229q9 -15 9 -30q0 -20 -16 -46q-15 -20 -30 -41q-42 -61 -107 -97t-137 -36q-35 0 -69 9q-89 22 -129 116q-9 29 -9 60q0 97 98 222q2 7 2 13q0 21 -36 54q-33 30 -28 62q10 63 71 121.5t125 58.5q29 0 71 -18q37 20 50 20q15 0 25 -13q5 -17 5 -36q0 -57 -38 -109
q-17 -8 -39 -5q-56 27 -56 64q0 9 3 19q-7 26 -37 26q-8 0 -15 -3q-35 -8 -65 -42q-26 -31 -38 -69q2 -39 63.5 -76t61.5 -73q0 -10 -3 -22q-14 -24 -53 -66t-53 -65q-25 -38 -25 -78q0 -13 3 -27q29 -74 93 -88q18 -4 36 -4q116 0 225 158q6 4 14.5 24t18.5 20q4 0 9 -3z
M365 835q0 -17 -27 -35l-60 -40q-47 -36 -64 -36q-9 0 -9 13q0 14 26 39q5 5 45 50q22 25 42 33q10 3 28.5 -4.5t18.5 -19.5z" />
    <glyph glyph-name="Ecircumflex" unicode="&#xca;" horiz-adv-x="546" 
d="M513 229q9 -15 9 -30q0 -20 -16 -46q-15 -20 -30 -41q-42 -61 -107 -97t-137 -36q-35 0 -69 9q-89 22 -129 116q-9 29 -9 60q0 97 98 222q2 7 2 13q0 21 -36 54q-33 30 -28 62q10 63 71 121.5t125 58.5q29 0 71 -18q37 20 50 20q15 0 25 -13q5 -17 5 -36q0 -57 -38 -109
q-17 -8 -39 -5q-56 27 -56 64q0 9 3 19q-7 26 -37 26q-8 0 -15 -3q-35 -8 -65 -42q-26 -31 -38 -69q2 -39 63.5 -76t61.5 -73q0 -10 -3 -22q-14 -24 -53 -66t-53 -65q-25 -38 -25 -78q0 -13 3 -27q29 -74 93 -88q18 -4 36 -4q116 0 225 158q6 4 14.5 24t18.5 20q4 0 9 -3z
M354 731q-1 -2 -4 -2q-17 0 -53 35q-13 11 -38 31q-15 -9 -45 -31q-40 -35 -59 -35q-3 0 -5 3t-2 7q0 15 27 42q7 7 43 50q21 25 39 33q5 5 16 0q17 -8 33 -33q29 -44 34 -50q18 -23 18 -36q0 -8 -4 -14z" />
    <glyph glyph-name="Edieresis" unicode="&#xcb;" horiz-adv-x="546" 
d="M513 229q9 -15 9 -30q0 -20 -16 -46q-15 -20 -30 -41q-42 -61 -107 -97t-137 -36q-35 0 -69 9q-89 22 -129 116q-9 29 -9 60q0 97 98 222q2 7 2 13q0 21 -36 54q-33 30 -28 62q10 63 71 121.5t125 58.5q29 0 71 -18q37 20 50 20q15 0 25 -13q5 -17 5 -36q0 -57 -38 -109
q-17 -8 -39 -5q-56 27 -56 64q0 9 3 19q-7 26 -37 26q-8 0 -15 -3q-35 -8 -65 -42q-26 -31 -38 -69q2 -39 63.5 -76t61.5 -73q0 -10 -3 -22q-14 -24 -53 -66t-53 -65q-25 -38 -25 -78q0 -13 3 -27q29 -74 93 -88q18 -4 36 -4q116 0 225 158q6 4 14.5 24t18.5 20q4 0 9 -3z
M386 786q0 -20 -13.5 -34.5t-32.5 -14.5q-20 0 -33.5 14.5t-13.5 34.5q0 19 13.5 32.5t33.5 13.5q19 0 32.5 -13.5t13.5 -32.5zM240 786q0 -20 -13.5 -34.5t-33.5 -14.5q-19 0 -32 14.5t-13 34.5q0 19 13 32.5t32 13.5q20 0 33.5 -13.5t13.5 -32.5z" />
    <glyph glyph-name="Igrave" unicode="&#xcc;" horiz-adv-x="338" 
d="M275 517q10 -87 10 -164q0 -192 -59 -319q-3 -2 -18 -21q-11 -13 -23 -13q-48 7 -69 73q0 8 8 20q4 1 9 1q19 0 49 -42q4 4 9 13q-1 70 8 164q-2 21 -2 156q0 95 -17 154l-16 12t-17 5q-13 -12 -17 -71q-4 -50 -28 -50q-13 0 -34 11q-43 24 -37 114q11 55 49 76
q124 -3 195 -119zM128 795q20 -8 42 -33q38 -43 45 -50q26 -25 26 -39q0 -13 -9 -13q-22 0 -64 36q-31 20 -59.5 39t-28.5 36q0 12 19 19.5t29 4.5z" />
    <glyph glyph-name="Iacute" unicode="&#xcd;" horiz-adv-x="338" 
d="M275 517q10 -87 10 -164q0 -192 -59 -319q-3 -2 -18 -21q-11 -13 -23 -13q-48 7 -69 73q0 8 8 20q4 1 9 1q19 0 49 -42q4 4 9 13q-1 70 8 164q-2 21 -2 156q0 95 -17 154l-16 12t-17 5q-13 -12 -17 -71q-4 -50 -28 -50q-13 0 -34 11q-43 24 -37 114q11 55 49 76
q124 -3 195 -119zM245 797q0 -17 -27 -35l-60 -40q-47 -36 -64 -36q-9 0 -9 13q0 14 26 39q5 5 45 50q22 25 42 33q10 3 28.5 -4.5t18.5 -19.5z" />
    <glyph glyph-name="Icircumflex" unicode="&#xce;" horiz-adv-x="338" 
d="M275 517q10 -87 10 -164q0 -192 -59 -319q-3 -2 -18 -21q-11 -13 -23 -13q-48 7 -69 73q0 8 8 20q4 1 9 1q19 0 49 -42q4 4 9 13q-1 70 8 164q-2 21 -2 156q0 95 -17 154l-16 12t-17 5q-13 -12 -17 -71q-4 -50 -28 -50q-13 0 -34 11q-43 24 -37 114q11 55 49 76
q124 -3 195 -119zM268 682q-1 -2 -4 -2q-17 0 -53 35q-13 11 -38 31q-15 -9 -45 -31q-40 -35 -59 -35q-3 0 -5 3t-2 7q0 15 27 42q7 7 43 50q21 25 39 33q5 5 16 0q17 -8 33 -33q29 -44 34 -50q18 -23 18 -36q0 -8 -4 -14z" />
    <glyph glyph-name="Idieresis" unicode="&#xcf;" horiz-adv-x="338" 
d="M275 517q10 -87 10 -164q0 -192 -59 -319q-3 -2 -18 -21q-11 -13 -23 -13q-48 7 -69 73q0 8 8 20q4 1 9 1q19 0 49 -42q4 4 9 13q-1 70 8 164q-2 21 -2 156q0 95 -17 154l-16 12t-17 5q-13 -12 -17 -71q-4 -50 -28 -50q-13 0 -34 11q-43 24 -37 114q11 55 49 76
q124 -3 195 -119zM294 731q0 -20 -13.5 -34.5t-32.5 -14.5q-20 0 -33.5 14.5t-13.5 34.5q0 19 13.5 32.5t33.5 13.5q19 0 32.5 -13.5t13.5 -32.5zM148 731q0 -20 -13.5 -34.5t-33.5 -14.5q-19 0 -32 14.5t-13 34.5q0 19 13 32.5t32 13.5q20 0 33.5 -13.5t13.5 -32.5z" />
    <glyph glyph-name="Ntilde" unicode="&#xd1;" horiz-adv-x="655" 
d="M628 67q0 -15 -8 -33q-9 -22 -24 -31q-7 -5 -23 -5q-42 0 -65 23q-25 31 -25 85q0 15 3 51q2 32 1 50q11 104 11 139q0 68 -19 110q-7 16 -29 16q-24 0 -33 -14q-56 -83 -127 -233q-82 -173 -118 -235q-12 -21 -16 -25q-8 -9 -22 -14q-12 -2 -20.5 6.5t-5.5 21.5l44 212
q23 124 23 217q0 34 -3 67q-4 12 -6 15q-5 7 -14 8q-21 -1 -28 -35.5t-21 -34.5q-9 0 -21 6l-30 14q-18 9 -18 27q-1 66 4 92q13 62 55 62q34 0 74 -40t51 -81q3 -6 3 -43q0 -109 -14 -217l22 24q27 43 55 87q37 59 58 83q39 45 77 90q53 50 110 43q44 -5 59 -63
q8 -33 8 -106q0 -35 -7 -109.5t-7 -111.5q0 -48 8 -85q2 -5 19 -13.5t19 -19.5zM506 740q-25 -71 -70 -71q-36 0 -68 12t-36 12q-18 0 -27 -30q-2 -12 -17 -4q-13 4 -11 14q23 77 74 77q29 0 64 -13t41 -13q11 0 22 27q0 7 15 5q18 -3 13 -16z" />
    <glyph glyph-name="Ograve" unicode="&#xd2;" horiz-adv-x="655" 
d="M621 378q13 -7 13 -13q0 -7 -20.5 -19t-20.5 -20q10 -205 -126 -304q-75 -55 -169 -55q-70 0 -131 33q-138 73 -138 282q0 22 2 46q18 101 68 176q55 83 140.5 116t138.5 33q50 0 96 -25q20 -11 34 -33.5t12 -34.5q0 -2 28.5 -12.5t33.5 -34.5q2 -37 3 -75q4 -44 36 -60z
M547 321q1 17 -37 20q-17 3 -33.5 30.5t-17.5 55.5q-3 13 -3 28q0 49 25 89q8 13 -42.5 36.5t-88.5 18.5q-83 -12 -150.5 -78t-84.5 -151q-7 -36 -7 -71q0 -141 97 -201q49 -30 113 -30q77 0 131 40q99 73 99 191q0 11 -1 22zM338 820q20 -8 42 -33q38 -43 45 -50
q26 -25 26 -39q0 -13 -9 -13q-22 0 -64 36q-31 20 -59.5 39t-28.5 36q0 12 19 19.5t29 4.5z" />
    <glyph glyph-name="Oacute" unicode="&#xd3;" horiz-adv-x="655" 
d="M621 378q13 -7 13 -13q0 -7 -20.5 -19t-20.5 -20q10 -205 -126 -304q-75 -55 -169 -55q-70 0 -131 33q-138 73 -138 282q0 22 2 46q18 101 68 176q55 83 140.5 116t138.5 33q50 0 96 -25q20 -11 34 -33.5t12 -34.5q0 -2 28.5 -12.5t33.5 -34.5q2 -37 3 -75q4 -44 36 -60z
M547 321q1 17 -37 20q-17 3 -33.5 30.5t-17.5 55.5q-3 13 -3 28q0 49 25 89q8 13 -42.5 36.5t-88.5 18.5q-83 -12 -150.5 -78t-84.5 -151q-7 -36 -7 -71q0 -141 97 -201q49 -30 113 -30q77 0 131 40q99 73 99 191q0 11 -1 22zM450 796q0 -17 -27 -35l-60 -40
q-47 -36 -64 -36q-9 0 -9 13q0 14 26 39q5 5 45 50q22 25 42 33q10 3 28.5 -4.5t18.5 -19.5z" />
    <glyph glyph-name="Ocircumflex" unicode="&#xd4;" horiz-adv-x="655" 
d="M621 378q13 -7 13 -13q0 -7 -20.5 -19t-20.5 -20q10 -205 -126 -304q-75 -55 -169 -55q-70 0 -131 33q-138 73 -138 282q0 22 2 46q18 101 68 176q55 83 140.5 116t138.5 33q50 0 96 -25q20 -11 34 -33.5t12 -34.5q0 -2 28.5 -12.5t33.5 -34.5q2 -37 3 -75q4 -44 36 -60z
M547 321q1 17 -37 20q-17 3 -33.5 30.5t-17.5 55.5q-3 13 -3 28q0 49 25 89q8 13 -42.5 36.5t-88.5 18.5q-83 -12 -150.5 -78t-84.5 -151q-7 -36 -7 -71q0 -141 97 -201q49 -30 113 -30q77 0 131 40q99 73 99 191q0 11 -1 22zM459 682q-1 -2 -4 -2q-17 0 -53 35
q-13 11 -38 31q-15 -9 -45 -31q-40 -35 -59 -35q-3 0 -5 3t-2 7q0 15 27 42q7 7 43 50q21 25 39 33q5 5 16 0q17 -8 33 -33q29 -44 34 -50q18 -23 18 -36q0 -8 -4 -14z" />
    <glyph glyph-name="Otilde" unicode="&#xd5;" horiz-adv-x="655" 
d="M621 378q13 -7 13 -13q0 -7 -20.5 -19t-20.5 -20q10 -205 -126 -304q-75 -55 -169 -55q-70 0 -131 33q-138 73 -138 282q0 22 2 46q18 101 68 176q55 83 140.5 116t138.5 33q50 0 96 -25q20 -11 34 -33.5t12 -34.5q0 -2 28.5 -12.5t33.5 -34.5q2 -37 3 -75q4 -44 36 -60z
M547 321q1 17 -37 20q-17 3 -33.5 30.5t-17.5 55.5q-3 13 -3 28q0 49 25 89q8 13 -42.5 36.5t-88.5 18.5q-83 -12 -150.5 -78t-84.5 -151q-7 -36 -7 -71q0 -141 97 -201q49 -30 113 -30q77 0 131 40q99 73 99 191q0 11 -1 22zM453 765q-25 -71 -70 -71q-36 0 -68 12t-36 12
q-18 0 -27 -30q-2 -12 -17 -4q-13 4 -11 14q23 77 74 77q29 0 64 -13t41 -13q11 0 22 27q0 7 15 5q18 -3 13 -16z" />
    <glyph glyph-name="Odieresis" unicode="&#xd6;" horiz-adv-x="655" 
d="M621 378q13 -7 13 -13q0 -7 -20.5 -19t-20.5 -20q10 -205 -126 -304q-75 -55 -169 -55q-70 0 -131 33q-138 73 -138 282q0 22 2 46q18 101 68 176q55 83 140.5 116t138.5 33q50 0 96 -25q20 -11 34 -33.5t12 -34.5q0 -2 28.5 -12.5t33.5 -34.5q2 -37 3 -75q4 -44 36 -60z
M547 321q1 17 -37 20q-17 3 -33.5 30.5t-17.5 55.5q-3 13 -3 28q0 49 25 89q8 13 -42.5 36.5t-88.5 18.5q-83 -12 -150.5 -78t-84.5 -151q-7 -36 -7 -71q0 -141 97 -201q49 -30 113 -30q77 0 131 40q99 73 99 191q0 11 -1 22zM482 734q0 -20 -13.5 -34.5t-32.5 -14.5
q-20 0 -33.5 14.5t-13.5 34.5q0 19 13.5 32.5t33.5 13.5q19 0 32.5 -13.5t13.5 -32.5zM336 734q0 -20 -13.5 -34.5t-33.5 -14.5q-19 0 -32 14.5t-13 34.5q0 19 13 32.5t32 13.5q20 0 33.5 -13.5t13.5 -32.5z" />
    <glyph glyph-name="multiply" unicode="&#xd7;" horiz-adv-x="404" 
d="M210 278q7 6 20.5 17t19.5 17q43 33 60 33t17 -10q0 -21 -71 -94q-3 -2 -8 -7q12 -15 35 -45q28 -37 28 -54q0 -21 -13 -21q-25 0 -86 63q-5 5 -10 7q-67 -74 -98 -80q-17 0 -17 33q0 17 6 26q19 28 59 68q-65 59 -66 84q-1 22 41 22q13 0 19 -4q29 -16 64 -55z" />
    <glyph glyph-name="Oslash" unicode="&#xd8;" horiz-adv-x="655" 
d="M621 378q13 -7 13 -13q0 -7 -20.5 -19t-20.5 -20q10 -205 -126 -304q-77 -56 -171 -56q-70 0 -129 34l-6 3q-23 -45 -42 -88q-6 -13 -18.5 -26t-20.5 -13q-4 0 -6 4q-10 34 -10 56q0 23 14 48q25 46 30 58q-79 76 -79 238q0 23 2 48q18 101 68 175q55 84 140 117t139 33
q42 0 80 -17q12 17 23 34q19 26 28 26q15 0 15 -22q0 -12 -7 -24.5t-22 -38.5q28 -34 25 -51q0 -2 28.5 -12.5t33.5 -34.5q2 -37 3 -75q4 -44 36 -60zM424 587q-44 17 -74 12q-83 -13 -150.5 -79t-84.5 -150q-7 -36 -7 -71q0 -94 50 -157q115 218 266 445zM547 321
q1 17 -37 20q-17 3 -33.5 30.5t-17.5 55.5q-3 14 -3 30q0 50 25 87q5 8 -14 19q-89 -157 -258 -467q50 -27 112 -27q76 0 128 39q99 73 99 191q0 11 -1 22z" />
    <glyph glyph-name="Ugrave" unicode="&#xd9;" horiz-adv-x="655" 
d="M617 64q5 -3 5 -10q0 -12 -13 -30t-24.5 -23.5t-23.5 -5.5q-36 0 -53 21q-29 35 -29 99q0 18 3 54.5t3 53.5q0 24 -4 41q-1 6 -7 8t-10 -4l-132 -154q-81 -83 -163 -108q-24 -7 -38 -7q-24 0 -49 23q-53 50 -53 178q0 84 23 208q19 89 38 177q6 13 12 26.5t17 19.5
q21 3 47 -32q22 -44 22 -98q0 -45 -19 -123q-20 -86 -23 -119q-1 -16 -14 -66q-11 -46 -11 -69q0 -46 41 -51q58 -7 109 41q21 20 79 98q38 52 83 133q38 70 75 139q12 22 37 22q9 0 17 -3q37 -24 37 -86q0 -24 -7 -64q-6 -45 -7 -57q1 -9 1 -20q0 -19 -6 -61.5t-6 -62.5
q0 -60 43 -88zM296 795q20 -8 42 -33q38 -43 45 -50q26 -25 26 -39q0 -13 -9 -13q-22 0 -64 36q-31 20 -59.5 39t-28.5 36q0 12 19 19.5t29 4.5z" />
    <glyph glyph-name="Uacute" unicode="&#xda;" horiz-adv-x="655" 
d="M617 64q5 -3 5 -10q0 -12 -13 -30t-24.5 -23.5t-23.5 -5.5q-36 0 -53 21q-29 35 -29 99q0 18 3 54.5t3 53.5q0 24 -4 41q-1 6 -7 8t-10 -4l-132 -154q-81 -83 -163 -108q-24 -7 -38 -7q-24 0 -49 23q-53 50 -53 178q0 84 23 208q19 89 38 177q6 13 12 26.5t17 19.5
q21 3 47 -32q22 -44 22 -98q0 -45 -19 -123q-20 -86 -23 -119q-1 -16 -14 -66q-11 -46 -11 -69q0 -46 41 -51q58 -7 109 41q21 20 79 98q38 52 83 133q38 70 75 139q12 22 37 22q9 0 17 -3q37 -24 37 -86q0 -24 -7 -64q-6 -45 -7 -57q1 -9 1 -20q0 -19 -6 -61.5t-6 -62.5
q0 -60 43 -88zM449 765q0 -17 -27 -35l-60 -40q-47 -36 -64 -36q-9 0 -9 13q0 14 26 39q5 5 45 50q22 25 42 33q10 3 28.5 -4.5t18.5 -19.5z" />
    <glyph glyph-name="Ucircumflex" unicode="&#xdb;" horiz-adv-x="655" 
d="M617 64q5 -3 5 -10q0 -12 -13 -30t-24.5 -23.5t-23.5 -5.5q-36 0 -53 21q-29 35 -29 99q0 18 3 54.5t3 53.5q0 24 -4 41q-1 6 -7 8t-10 -4l-132 -154q-81 -83 -163 -108q-24 -7 -38 -7q-24 0 -49 23q-53 50 -53 178q0 84 23 208q19 89 38 177q6 13 12 26.5t17 19.5
q21 3 47 -32q22 -44 22 -98q0 -45 -19 -123q-20 -86 -23 -119q-1 -16 -14 -66q-11 -46 -11 -69q0 -46 41 -51q58 -7 109 41q21 20 79 98q38 52 83 133q38 70 75 139q12 22 37 22q9 0 17 -3q37 -24 37 -86q0 -24 -7 -64q-6 -45 -7 -57q1 -9 1 -20q0 -19 -6 -61.5t-6 -62.5
q0 -60 43 -88zM460 657q-1 -2 -4 -2q-17 0 -53 35q-13 11 -38 31q-15 -9 -45 -31q-40 -35 -59 -35q-3 0 -5 3t-2 7q0 15 27 42q7 7 43 50q21 25 39 33q5 5 16 0q17 -8 33 -33q29 -44 34 -50q18 -23 18 -36q0 -8 -4 -14z" />
    <glyph glyph-name="Udieresis" unicode="&#xdc;" horiz-adv-x="655" 
d="M617 64q5 -3 5 -10q0 -12 -13 -30t-24.5 -23.5t-23.5 -5.5q-36 0 -53 21q-29 35 -29 99q0 18 3 54.5t3 53.5q0 24 -4 41q-1 6 -7 8t-10 -4l-132 -154q-81 -83 -163 -108q-24 -7 -38 -7q-24 0 -49 23q-53 50 -53 178q0 84 23 208q19 89 38 177q6 13 12 26.5t17 19.5
q21 3 47 -32q22 -44 22 -98q0 -45 -19 -123q-20 -86 -23 -119q-1 -16 -14 -66q-11 -46 -11 -69q0 -46 41 -51q58 -7 109 41q21 20 79 98q38 52 83 133q38 70 75 139q12 22 37 22q9 0 17 -3q37 -24 37 -86q0 -24 -7 -64q-6 -45 -7 -57q1 -9 1 -20q0 -19 -6 -61.5t-6 -62.5
q0 -60 43 -88zM498 706q0 -20 -13.5 -34.5t-32.5 -14.5q-20 0 -33.5 14.5t-13.5 34.5q0 19 13.5 32.5t33.5 13.5q19 0 32.5 -13.5t13.5 -32.5zM352 706q0 -20 -13.5 -34.5t-33.5 -14.5q-19 0 -32 14.5t-13 34.5q0 19 13 32.5t32 13.5q20 0 33.5 -13.5t13.5 -32.5z" />
    <glyph glyph-name="Yacute" unicode="&#xdd;" horiz-adv-x="579" 
d="M527 545q4 -56 4 -109q0 -372 -180 -602q-48 -38 -68 -38q-10 0 -20 5q-24 21 -24 61q0 20 8 60q56 167 124 233q9 0 11.5 -8t4.5 -15q-32 -64 -63 -127q-35 -76 -43 -137q2 -3 1.5 -15.5t8.5 -14.5q42 24 69 81q20 52 39 104q29 118 29 232q0 66 -10 129q-5 16 -17 16
q-4 0 -8 -4q-30 -31 -82 -97t-80 -94q-47 -48 -98 -73q-9 -3 -20 -3q-26 0 -47 16q-29 28 -37 82q-2 19 -4 92q-4 177 64 336q11 14 26 14q16 0 29.5 -15t16.5 -33q4 -29 4 -59q0 -65 -24 -164q-32 -131 -37 -162q2 -14 5 -28.5t17 -20.5q42 7 93 75q71 94 228 356
q31 19 51 9q16 -11 22 -37q3 -23 7 -45zM401 786q0 -17 -27 -35l-60 -40q-47 -36 -64 -36q-9 0 -9 13q0 14 26 39q5 5 45 50q22 25 42 33q10 3 28.5 -4.5t18.5 -19.5z" />
    <glyph glyph-name="germandbls" unicode="&#xdf;" 
d="M357 188q-31 -152 -124 -209q-5 -3 -16 -3q-33 0 -67 14q-11 5 -11 30q0 9 3 15q6 10 16 10q6 0 13 -8.5t12 -10.5q17 -7 31 -2q31 20 54 73q21 47 17 65q-8 36 -64 65q-59 31 -66 51q-1 7 -1 14q0 28 29.5 75t29.5 75q0 17 -7 34q-23 18 -51 18q-12 0 -24 -3t-19.5 -17
t-14.5 -28q-11 -21 -3 -256q7 -230 -4 -238q-4 -4 -12 -4q-13 0 -28.5 9t-20.5 22.5t-5 101.5q0 124 7 254q8 148 19 167q21 29 55.5 45t69.5 14q31 -10 70 -36q22 -26 22 -61q0 -25 -15 -65.5t-15 -49.5q0 -17 34 -31q24 -9 46 -18.5t33 -50.5q8 -32 7 -61z" />
    <glyph glyph-name="agrave" unicode="&#xe0;" 
d="M355 51q7 -6 7 -15q0 -10 -10.5 -22t-29.5 -12q-13 0 -26 5q-22 10 -32 38q-8 24 -15 48q-1 1 -2 1q-4 0 -22 -20q-21 -25 -30 -32l-36 -28q-21 -14 -42 -14q-34 0 -67 33q-29 29 -31 50q-2 16 -2 33q0 64 27.5 119.5t80.5 85.5q24 13 54 13q34 0 53 -19q9 -16 19 -31
q16 -23 33 -21q10 1 24 -10.5t14 -17.5q0 -10 -1.5 -35.5t-1.5 -39.5q0 -79 36 -109zM243 232q-13 0 -24 17t-18.5 19.5t-15.5 2.5q-18 0 -34 -11q-55 -40 -55 -121q0 -12 1 -24q4 -25 28 -34q7 -2 14 -2q25 0 56 32q17 18 35.5 55.5t18.5 55.5q0 10 -6 10zM150 501
q20 -8 42 -33q38 -43 45 -50q26 -25 26 -39q0 -13 -9 -13q-22 0 -64 36q-31 20 -59.5 39t-28.5 36q0 12 19 19.5t29 4.5z" />
    <glyph glyph-name="aacute" unicode="&#xe1;" 
d="M355 51q7 -6 7 -15q0 -10 -10.5 -22t-29.5 -12q-13 0 -26 5q-22 10 -32 38q-8 24 -15 48q-1 1 -2 1q-4 0 -22 -20q-21 -25 -30 -32l-36 -28q-21 -14 -42 -14q-34 0 -67 33q-29 29 -31 50q-2 16 -2 33q0 64 27.5 119.5t80.5 85.5q24 13 54 13q34 0 53 -19q9 -16 19 -31
q16 -23 33 -21q10 1 24 -10.5t14 -17.5q0 -10 -1.5 -35.5t-1.5 -39.5q0 -79 36 -109zM243 232q-13 0 -24 17t-18.5 19.5t-15.5 2.5q-18 0 -34 -11q-55 -40 -55 -121q0 -12 1 -24q4 -25 28 -34q7 -2 14 -2q25 0 56 32q17 18 35.5 55.5t18.5 55.5q0 10 -6 10zM267 477
q0 -17 -27 -35l-60 -40q-47 -36 -64 -36q-9 0 -9 13q0 14 26 39q5 5 45 50q22 25 42 33q10 3 28.5 -4.5t18.5 -19.5z" />
    <glyph glyph-name="acircumflex" unicode="&#xe2;" 
d="M355 51q7 -6 7 -15q0 -10 -10.5 -22t-29.5 -12q-13 0 -26 5q-22 10 -32 38q-8 24 -15 48q-1 1 -2 1q-4 0 -22 -20q-21 -25 -30 -32l-36 -28q-21 -14 -42 -14q-34 0 -67 33q-29 29 -31 50q-2 16 -2 33q0 64 27.5 119.5t80.5 85.5q24 13 54 13q34 0 53 -19q9 -16 19 -31
q16 -23 33 -21q10 1 24 -10.5t14 -17.5q0 -10 -1.5 -35.5t-1.5 -39.5q0 -79 36 -109zM243 232q-13 0 -24 17t-18.5 19.5t-15.5 2.5q-18 0 -34 -11q-55 -40 -55 -121q0 -12 1 -24q4 -25 28 -34q7 -2 14 -2q25 0 56 32q17 18 35.5 55.5t18.5 55.5q0 10 -6 10zM287 363
q-1 -2 -4 -2q-17 0 -53 35q-13 11 -38 31q-15 -9 -45 -31q-40 -35 -59 -35q-3 0 -5 3t-2 7q0 15 27 42q7 7 43 50q21 25 39 33q5 5 16 0q17 -8 33 -33q29 -44 34 -50q18 -23 18 -36q0 -8 -4 -14z" />
    <glyph glyph-name="atilde" unicode="&#xe3;" 
d="M355 51q7 -6 7 -15q0 -10 -10.5 -22t-29.5 -12q-13 0 -26 5q-22 10 -32 38q-8 24 -15 48q-1 1 -2 1q-4 0 -22 -20q-21 -25 -30 -32l-36 -28q-21 -14 -42 -14q-34 0 -67 33q-29 29 -31 50q-2 16 -2 33q0 64 27.5 119.5t80.5 85.5q24 13 54 13q34 0 53 -19q9 -16 19 -31
q16 -23 33 -21q10 1 24 -10.5t14 -17.5q0 -10 -1.5 -35.5t-1.5 -39.5q0 -79 36 -109zM243 232q-13 0 -24 17t-18.5 19.5t-15.5 2.5q-18 0 -34 -11q-55 -40 -55 -121q0 -12 1 -24q4 -25 28 -34q7 -2 14 -2q25 0 56 32q17 18 35.5 55.5t18.5 55.5q0 10 -6 10zM320 446
q-25 -71 -70 -71q-36 0 -68 12t-36 12q-18 0 -27 -30q-2 -12 -17 -4q-13 4 -11 14q23 77 74 77q29 0 64 -13t41 -13q11 0 22 27q0 7 15 5q18 -3 13 -16z" />
    <glyph glyph-name="adieresis" unicode="&#xe4;" 
d="M355 51q7 -6 7 -15q0 -10 -10.5 -22t-29.5 -12q-13 0 -26 5q-22 10 -32 38q-8 24 -15 48q-1 1 -2 1q-4 0 -22 -20q-21 -25 -30 -32l-36 -28q-21 -14 -42 -14q-34 0 -67 33q-29 29 -31 50q-2 16 -2 33q0 64 27.5 119.5t80.5 85.5q24 13 54 13q34 0 53 -19q9 -16 19 -31
q16 -23 33 -21q10 1 24 -10.5t14 -17.5q0 -10 -1.5 -35.5t-1.5 -39.5q0 -79 36 -109zM243 232q-13 0 -24 17t-18.5 19.5t-15.5 2.5q-18 0 -34 -11q-55 -40 -55 -121q0 -12 1 -24q4 -25 28 -34q7 -2 14 -2q25 0 56 32q17 18 35.5 55.5t18.5 55.5q0 10 -6 10zM310 412
q0 -20 -13.5 -34.5t-32.5 -14.5q-20 0 -33.5 14.5t-13.5 34.5q0 19 13.5 32.5t33.5 13.5q19 0 32.5 -13.5t13.5 -32.5zM164 412q0 -20 -13.5 -34.5t-33.5 -14.5q-19 0 -32 14.5t-13 34.5q0 19 13 32.5t32 13.5q20 0 33.5 -13.5t13.5 -32.5z" />
    <glyph glyph-name="aring" unicode="&#xe5;" 
d="M355 51q7 -6 7 -15q0 -10 -10.5 -22t-29.5 -12q-13 0 -26 5q-22 10 -32 38q-8 24 -15 48q-1 1 -2 1q-4 0 -22 -20q-21 -25 -30 -32l-36 -28q-21 -14 -42 -14q-34 0 -67 33q-29 29 -31 50q-2 16 -2 33q0 64 27.5 119.5t80.5 85.5q24 13 54 13q34 0 53 -19q9 -16 19 -31
q16 -23 33 -21q10 1 24 -10.5t14 -17.5q0 -10 -1.5 -35.5t-1.5 -39.5q0 -79 36 -109zM243 232q-13 0 -24 17t-18.5 19.5t-15.5 2.5q-18 0 -34 -11q-55 -40 -55 -121q0 -12 1 -24q4 -25 28 -34q7 -2 14 -2q25 0 56 32q17 18 35.5 55.5t18.5 55.5q0 10 -6 10zM292 430
q0 -33 -31 -53q-27 -17 -67 -17q-37 0 -58.5 16.5t-19.5 44.5q2 31 30 50t67 19q37 0 59.5 -16.5t19.5 -43.5zM251 426q3 35 -41 35q-18 0 -34 -8q-20 -11 -21 -27q-1 -17 13.5 -27.5t30.5 -10.5q49 0 52 38z" />
    <glyph glyph-name="ae" unicode="&#xe6;" horiz-adv-x="491" 
d="M473 83q-1 -55 -74 -89q-15 -7 -32 -7q-29 0 -68 22q-40 31 -48 79q0 1 -0.5 3t-1.5 2.5t-2 0.5q-4 0 -22 -20q-21 -25 -30 -32l-36 -28q-21 -14 -42 -14q-34 0 -67 33q-29 29 -31 50q-2 16 -2 33q0 64 27.5 119.5t80.5 85.5q24 13 54 13q34 0 53 -19q9 -16 19 -31
q16 -23 33 -21q7 0 9 1q37 58 106 69q9 1 28 -4.5t28 -16t9 -29.5q0 -28 -21 -65q-26 -46 -116 -78q-13 -5 -7 -17q15 -63 51 -63q10 0 22 3q29 8 61 33q4 1 11.5 -3.5t7.5 -9.5zM399 259q1 5 -4 10.5t-11 3.5q-21 -8 -40.5 -38.5t-19.5 -47.5q0 -5 3 -6q17 -2 41.5 24
t30.5 54zM243 232q-13 0 -24 17t-18.5 19.5t-15.5 2.5q-18 0 -34 -11q-55 -40 -55 -121q0 -12 1 -24q4 -25 28 -34q7 -2 14 -2q25 0 56 32q17 18 35.5 55.5t18.5 55.5q0 10 -6 10z" />
    <glyph glyph-name="ccedilla" unicode="&#xe7;" horiz-adv-x="273" 
d="M245 68q-59 -67 -128 -67q-62 0 -93 55q-12 30 -12 63q0 87 73 156q50 47 90 47q27 0 43 -24q5 -8 5 -26q0 -30 -20 -35q-10 -3 -24 4t-20 7q-5 0 -11 -3q-60 -35 -63 -108q-1 -5 -1 -10q0 -26 27 -44q16 -9 35 -9q20 0 50 13q36 14 45 16q12 1 12 -14q0 -12 -8 -21z
M156 -73q0 -62 -115 -62q-14 0 -14 14q0 8 23 8q52 0 52 34q0 28 -46 40l35 42l41 -2l-20 -23q20 0 32 -17t12 -34z" />
    <glyph glyph-name="egrave" unicode="&#xe8;" horiz-adv-x="262" 
d="M237 83q-1 -54 -75 -89q-14 -7 -31 -7q-30 0 -67 22q-52 40 -52 114q0 30 9 61q39 133 141 149q10 2 28.5 -4t28 -16.5t9.5 -28.5q0 -27 -22 -66q-26 -46 -116 -78q-11 -4 -5 -17q13 -63 51 -63q10 0 22 3q24 7 60 33q10 -3 19 -13zM162 259q1 5 -4 10.5t-11 3.5
q-21 -7 -41 -40q-19 -29 -19 -46q0 -5 3 -6q18 -2 42 24t30 54zM114 501q20 -8 42 -33q38 -43 45 -50q26 -25 26 -39q0 -13 -9 -13q-22 0 -64 36q-31 20 -59.5 39t-28.5 36q0 12 19 19.5t29 4.5z" />
    <glyph glyph-name="eacute" unicode="&#xe9;" horiz-adv-x="262" 
d="M237 83q-1 -54 -75 -89q-14 -7 -31 -7q-30 0 -67 22q-52 40 -52 114q0 30 9 61q39 133 141 149q10 2 28.5 -4t28 -16.5t9.5 -28.5q0 -27 -22 -66q-26 -46 -116 -78q-11 -4 -5 -17q13 -63 51 -63q10 0 22 3q24 7 60 33q10 -3 19 -13zM162 259q1 5 -4 10.5t-11 3.5
q-21 -7 -41 -40q-19 -29 -19 -46q0 -5 3 -6q18 -2 42 24t30 54zM229 471q0 -17 -27 -35l-60 -40q-47 -36 -64 -36q-9 0 -9 13q0 14 26 39q5 5 45 50q22 25 42 33q10 3 28.5 -4.5t18.5 -19.5z" />
    <glyph glyph-name="ecircumflex" unicode="&#xea;" horiz-adv-x="262" 
d="M237 83q-1 -54 -75 -89q-14 -7 -31 -7q-30 0 -67 22q-52 40 -52 114q0 30 9 61q39 133 141 149q10 2 28.5 -4t28 -16.5t9.5 -28.5q0 -27 -22 -66q-26 -46 -116 -78q-11 -4 -5 -17q13 -63 51 -63q10 0 22 3q24 7 60 33q10 -3 19 -13zM162 259q1 5 -4 10.5t-11 3.5
q-21 -7 -41 -40q-19 -29 -19 -46q0 -5 3 -6q18 -2 42 24t30 54zM238 363q-1 -2 -4 -2q-17 0 -53 35q-13 11 -38 31q-15 -9 -45 -31q-40 -35 -59 -35q-3 0 -5 3t-2 7q0 15 27 42q7 7 43 50q21 25 39 33q5 5 16 0q17 -8 33 -33q29 -44 34 -50q18 -23 18 -36q0 -8 -4 -14z" />
    <glyph glyph-name="edieresis" unicode="&#xeb;" horiz-adv-x="262" 
d="M237 83q-1 -54 -75 -89q-14 -7 -31 -7q-30 0 -67 22q-52 40 -52 114q0 30 9 61q39 133 141 149q10 2 28.5 -4t28 -16.5t9.5 -28.5q0 -27 -22 -66q-26 -46 -116 -78q-11 -4 -5 -17q13 -63 51 -63q10 0 22 3q24 7 60 33q10 -3 19 -13zM162 259q1 5 -4 10.5t-11 3.5
q-21 -7 -41 -40q-19 -29 -19 -46q0 -5 3 -6q18 -2 42 24t30 54zM258 412q0 -20 -13.5 -34.5t-32.5 -14.5q-20 0 -33.5 14.5t-13.5 34.5q0 19 13.5 32.5t33.5 13.5q19 0 32.5 -13.5t13.5 -32.5zM112 412q0 -20 -13.5 -34.5t-33.5 -14.5q-19 0 -32 14.5t-13 34.5q0 19 13 32.5
t32 13.5q20 0 33.5 -13.5t13.5 -32.5z" />
    <glyph glyph-name="igrave" unicode="&#xec;" horiz-adv-x="197" 
d="M148 52q5 -3 -10 -25.5t-27 -26.5q-5 -1 -10 -1q-17 0 -34 11t-18 19q-8 28 -8 73q0 22 3 68q2 35 0 44q-20 7 -20 29q0 10 7 17q68 68 93 68q4 0 5 -3q5 -14 5 -30t-7 -48t-7 -49q-7 -34 -7 -60q0 -58 35 -86zM62 501q20 -8 42 -33q38 -43 45 -50q26 -25 26 -39
q0 -13 -9 -13q-22 0 -64 36q-31 20 -59.5 39t-28.5 36q0 12 19 19.5t29 4.5z" />
    <glyph glyph-name="iacute" unicode="&#xed;" horiz-adv-x="197" 
d="M148 52q5 -3 -10 -25.5t-27 -26.5q-5 -1 -10 -1q-17 0 -34 11t-18 19q-8 28 -8 73q0 22 3 68q2 35 0 44q-20 7 -20 29q0 10 7 17q68 68 93 68q4 0 5 -3q5 -14 5 -30t-7 -48t-7 -49q-7 -34 -7 -60q0 -58 35 -86zM179 471q0 -17 -27 -35l-60 -40q-47 -36 -64 -36
q-9 0 -9 13q0 14 26 39q5 5 45 50q22 25 42 33q10 3 28.5 -4.5t18.5 -19.5z" />
    <glyph glyph-name="icircumflex" unicode="&#xee;" horiz-adv-x="197" 
d="M148 52q5 -3 -10 -25.5t-27 -26.5q-5 -1 -10 -1q-17 0 -34 11t-18 19q-8 28 -8 73q0 22 3 68q2 35 0 44q-20 7 -20 29q0 10 7 17q68 68 93 68q4 0 5 -3q5 -14 5 -30t-7 -48t-7 -49q-7 -34 -7 -60q0 -58 35 -86zM196 363q-1 -2 -4 -2q-17 0 -53 35q-13 11 -38 31
q-15 -9 -45 -31q-40 -35 -59 -35q-3 0 -5 3t-2 7q0 15 27 42q7 7 43 50q21 25 39 33q5 5 16 0q17 -8 33 -33q29 -44 34 -50q18 -23 18 -36q0 -8 -4 -14z" />
    <glyph glyph-name="idieresis" unicode="&#xef;" horiz-adv-x="197" 
d="M148 52q5 -3 -10 -25.5t-27 -26.5q-5 -1 -10 -1q-17 0 -34 11t-18 19q-8 28 -8 73q0 22 3 68q2 35 0 44q-20 7 -20 29q0 10 7 17q68 68 93 68q4 0 5 -3q5 -14 5 -30t-7 -48t-7 -49q-7 -34 -7 -60q0 -58 35 -86zM222 412q0 -20 -13.5 -34.5t-32.5 -14.5q-20 0 -33.5 14.5
t-13.5 34.5q0 19 13.5 32.5t33.5 13.5q19 0 32.5 -13.5t13.5 -32.5zM76 412q0 -20 -13.5 -34.5t-33.5 -14.5q-19 0 -32 14.5t-13 34.5q0 19 13 32.5t32 13.5q20 0 33.5 -13.5t13.5 -32.5z" />
    <glyph glyph-name="ntilde" unicode="&#xf1;" 
d="M371 52q2 -10 -10 -27t-19.5 -21t-14.5 -4q-21 0 -48 20q-28 25 -28 72q0 14 5 54q3 34 1 52q-1 8 -9 8t-19 -8q-35 -27 -74 -98q-41 -75 -70 -100q-2 -2 -5 -2q-6 0 -13 6.5t-7 11.5q-4 27 -4 97q1 63 -8 97q-2 6 -16 14t-14 15q0 4 2 8q5 11 30.5 29t36.5 18
q39 -5 39 -60v-14v-14q0 -30 8 -43q2 -3 5 -3q9 0 15 13q23 24 55 67q38 50 54 69q13 16 36 16q33 0 42 -28q1 -30 -6 -86q-7 -59 -7 -85q0 -22 3 -41q3 -10 19.5 -16t20.5 -17zM307 446q-25 -71 -70 -71q-36 0 -68 12t-36 12q-18 0 -27 -30q-2 -12 -17 -4q-13 4 -11 14
q23 77 74 77q29 0 64 -13t41 -13q11 0 22 27q0 7 15 5q18 -3 13 -16z" />
    <glyph glyph-name="ograve" unicode="&#xf2;" horiz-adv-x="328" 
d="M313 279q0 -8 -22 -41q-5 -8 -15 -8q-6 0 -18 5t-15 5q-7 0 -5 -15q26 -33 26 -85q0 -43 -19 -74q-48 -78 -126 -72q-38 8 -69.5 38t-34.5 58q-1 11 -1 22q0 61 27.5 113.5t77.5 77.5q4 2 14 -2.5t9 -8.5q-5 -15 -22 -38q-20 -28 -24 -36q-14 -41 -14 -70q0 -15 3 -28
q9 -41 65 -41q9 0 17 2q37 7 50 58q4 51 -11 75q-4 11 -27.5 28t-23.5 30q0 6 3.5 13.5t25 21.5t39.5 14q77 -2 90 -42zM116 501q20 -8 42 -33q38 -43 45 -50q26 -25 26 -39q0 -13 -9 -13q-22 0 -64 36q-31 20 -59.5 39t-28.5 36q0 12 19 19.5t29 4.5z" />
    <glyph glyph-name="oacute" unicode="&#xf3;" horiz-adv-x="328" 
d="M313 279q0 -8 -22 -41q-5 -8 -15 -8q-6 0 -18 5t-15 5q-7 0 -5 -15q26 -33 26 -85q0 -43 -19 -74q-48 -78 -126 -72q-38 8 -69.5 38t-34.5 58q-1 11 -1 22q0 61 27.5 113.5t77.5 77.5q4 2 14 -2.5t9 -8.5q-5 -15 -22 -38q-20 -28 -24 -36q-14 -41 -14 -70q0 -15 3 -28
q9 -41 65 -41q9 0 17 2q37 7 50 58q4 51 -11 75q-4 11 -27.5 28t-23.5 30q0 6 3.5 13.5t25 21.5t39.5 14q77 -2 90 -42zM239 477q0 -17 -27 -35l-60 -40q-47 -36 -64 -36q-9 0 -9 13q0 14 26 39q5 5 45 50q22 25 42 33q10 3 28.5 -4.5t18.5 -19.5z" />
    <glyph glyph-name="ocircumflex" unicode="&#xf4;" horiz-adv-x="328" 
d="M313 279q0 -8 -22 -41q-5 -8 -15 -8q-6 0 -18 5t-15 5q-7 0 -5 -15q26 -33 26 -85q0 -43 -19 -74q-48 -78 -126 -72q-38 8 -69.5 38t-34.5 58q-1 11 -1 22q0 61 27.5 113.5t77.5 77.5q4 2 14 -2.5t9 -8.5q-5 -15 -22 -38q-20 -28 -24 -36q-14 -41 -14 -70q0 -15 3 -28
q9 -41 65 -41q9 0 17 2q37 7 50 58q4 51 -11 75q-4 11 -27.5 28t-23.5 30q0 6 3.5 13.5t25 21.5t39.5 14q77 -2 90 -42zM256 363q-1 -2 -4 -2q-17 0 -53 35q-13 11 -38 31q-15 -9 -45 -31q-40 -35 -59 -35q-3 0 -5 3t-2 7q0 15 27 42q7 7 43 50q21 25 39 33q5 5 16 0
q17 -8 33 -33q29 -44 34 -50q18 -23 18 -36q0 -8 -4 -14z" />
    <glyph glyph-name="otilde" unicode="&#xf5;" horiz-adv-x="328" 
d="M313 279q0 -8 -22 -41q-5 -8 -15 -8q-6 0 -18 5t-15 5q-7 0 -5 -15q26 -33 26 -85q0 -43 -19 -74q-48 -78 -126 -72q-38 8 -69.5 38t-34.5 58q-1 11 -1 22q0 61 27.5 113.5t77.5 77.5q4 2 14 -2.5t9 -8.5q-5 -15 -22 -38q-20 -28 -24 -36q-14 -41 -14 -70q0 -15 3 -28
q9 -41 65 -41q9 0 17 2q37 7 50 58q4 51 -11 75q-4 11 -27.5 28t-23.5 30q0 6 3.5 13.5t25 21.5t39.5 14q77 -2 90 -42zM277 446q-25 -71 -70 -71q-36 0 -68 12t-36 12q-18 0 -27 -30q-2 -12 -17 -4q-13 4 -11 14q23 77 74 77q29 0 64 -13t41 -13q11 0 22 27q0 7 15 5
q18 -3 13 -16z" />
    <glyph glyph-name="odieresis" unicode="&#xf6;" horiz-adv-x="328" 
d="M313 279q0 -8 -22 -41q-5 -8 -15 -8q-6 0 -18 5t-15 5q-7 0 -5 -15q26 -33 26 -85q0 -43 -19 -74q-48 -78 -126 -72q-38 8 -69.5 38t-34.5 58q-1 11 -1 22q0 61 27.5 113.5t77.5 77.5q4 2 14 -2.5t9 -8.5q-5 -15 -22 -38q-20 -28 -24 -36q-14 -41 -14 -70q0 -15 3 -28
q9 -41 65 -41q9 0 17 2q37 7 50 58q4 51 -11 75q-4 11 -27.5 28t-23.5 30q0 6 3.5 13.5t25 21.5t39.5 14q77 -2 90 -42zM282 412q0 -20 -13.5 -34.5t-32.5 -14.5q-20 0 -33.5 14.5t-13.5 34.5q0 19 13.5 32.5t33.5 13.5q19 0 32.5 -13.5t13.5 -32.5zM136 412
q0 -20 -13.5 -34.5t-33.5 -14.5q-19 0 -32 14.5t-13 34.5q0 19 13 32.5t32 13.5q20 0 33.5 -13.5t13.5 -32.5z" />
    <glyph glyph-name="oslash" unicode="&#xf8;" horiz-adv-x="328" 
d="M313 279q0 -8 -22 -41q-5 -8 -15 -8q-6 0 -18 5t-15 5q-7 0 -5 -15q26 -33 26 -85q0 -43 -19 -74q-48 -78 -126 -72q-21 5 -36 14q-7 -14 -18 -40q-9 -20 -19 -20q-2 0 -3 2q-6 17 -6 28t6.5 23t13.5 24q-40 36 -42 65q-5 67 21 124q29 61 83 89q4 2 14 -2.5t9 -8.5
q-5 -15 -22 -38q-20 -28 -24 -36q-13 -39 -13 -71q0 -36 12 -46q34 62 83 141q-23 17 -23 30q0 5 3.5 13t25 22t39.5 14q2 0 6 -1q15 22 24 32q3 5 7 5q7 0 7 -10q0 -7 -5 -15q-7 -12 -8 -14q51 -11 59 -39zM217 139q4 51 -11 75q-1 6 -7 10q-26 -47 -76 -139q22 -8 44 -4
q37 6 50 58z" />
    <glyph glyph-name="ugrave" unicode="&#xf9;" horiz-adv-x="415" 
d="M391 47q4 -9 -6 -26t-25 -21q-47 -7 -77 35q0 1 -22 142q-5 0 -30 -46q-30 -58 -55 -86q-40 -47 -83 -47q-45 0 -54 19q-21 42 -21 99q0 56 41 206q9 9 21 9q17 0 35 -15q15 -14 15 -22q-2 -29 -19 -88q-15 -55 -15 -88q0 -11 1 -22q8 -18 29 -18q6 0 10 2q41 34 84 119
t74 114q5 5 15 4q11 0 14 -6q22 -31 22 -87q0 -16 -2 -49t-2 -49q0 -15 1 -28q0 -9 22 -24.5t27 -26.5zM158 501q20 -8 42 -33q38 -43 45 -50q26 -25 26 -39q0 -13 -9 -13q-22 0 -64 36q-31 20 -59.5 39t-28.5 36q0 12 19 19.5t29 4.5z" />
    <glyph glyph-name="uacute" unicode="&#xfa;" horiz-adv-x="415" 
d="M391 47q4 -9 -6 -26t-25 -21q-47 -7 -77 35q0 1 -22 142q-5 0 -30 -46q-30 -58 -55 -86q-40 -47 -83 -47q-45 0 -54 19q-21 42 -21 99q0 56 41 206q9 9 21 9q17 0 35 -15q15 -14 15 -22q-2 -29 -19 -88q-15 -55 -15 -88q0 -11 1 -22q8 -18 29 -18q6 0 10 2q41 34 84 119
t74 114q5 5 15 4q11 0 14 -6q22 -31 22 -87q0 -16 -2 -49t-2 -49q0 -15 1 -28q0 -9 22 -24.5t27 -26.5zM296 477q0 -17 -27 -35l-60 -40q-47 -36 -64 -36q-9 0 -9 13q0 14 26 39q5 5 45 50q22 25 42 33q10 3 28.5 -4.5t18.5 -19.5z" />
    <glyph glyph-name="ucircumflex" unicode="&#xfb;" horiz-adv-x="415" 
d="M391 47q4 -9 -6 -26t-25 -21q-47 -7 -77 35q0 1 -22 142q-5 0 -30 -46q-30 -58 -55 -86q-40 -47 -83 -47q-45 0 -54 19q-21 42 -21 99q0 56 41 206q9 9 21 9q17 0 35 -15q15 -14 15 -22q-2 -29 -19 -88q-15 -55 -15 -88q0 -11 1 -22q8 -18 29 -18q6 0 10 2q41 34 84 119
t74 114q5 5 15 4q11 0 14 -6q22 -31 22 -87q0 -16 -2 -49t-2 -49q0 -15 1 -28q0 -9 22 -24.5t27 -26.5zM298 363q-1 -2 -4 -2q-17 0 -53 35q-13 11 -38 31q-15 -9 -45 -31q-40 -35 -59 -35q-3 0 -5 3t-2 7q0 15 27 42q7 7 43 50q21 25 39 33q5 5 16 0q17 -8 33 -33
q29 -44 34 -50q18 -23 18 -36q0 -8 -4 -14z" />
    <glyph glyph-name="udieresis" unicode="&#xfc;" horiz-adv-x="415" 
d="M391 47q4 -9 -6 -26t-25 -21q-47 -7 -77 35q0 1 -22 142q-5 0 -30 -46q-30 -58 -55 -86q-40 -47 -83 -47q-45 0 -54 19q-21 42 -21 99q0 56 41 206q9 9 21 9q17 0 35 -15q15 -14 15 -22q-2 -29 -19 -88q-15 -55 -15 -88q0 -11 1 -22q8 -18 29 -18q6 0 10 2q41 34 84 119
t74 114q5 5 15 4q11 0 14 -6q22 -31 22 -87q0 -16 -2 -49t-2 -49q0 -15 1 -28q0 -9 22 -24.5t27 -26.5zM324 412q0 -20 -13.5 -34.5t-32.5 -14.5q-20 0 -33.5 14.5t-13.5 34.5q0 19 13.5 32.5t33.5 13.5q19 0 32.5 -13.5t13.5 -32.5zM178 412q0 -20 -13.5 -34.5t-33.5 -14.5
q-19 0 -32 14.5t-13 34.5q0 19 13 32.5t32 13.5q20 0 33.5 -13.5t13.5 -32.5z" />
    <glyph glyph-name="yacute" unicode="&#xfd;" 
d="M349 272q0 -62 -19 -221q-18 -145 -14 -224q10 -18 10 -26q0 -6 -3 -11q-7 -20 -39 -8q-31 38 -31 115q0 19 2 57t2 55q-1 22 5.5 73.5t6.5 65.5q0 20 -7 20q-10 1 -55 -69q-50 -79 -53 -82q-14 -11 -28 -11q-7 0 -11 3q-38 38 -62 102q-4 13 -34 116q-3 32 -3 40
q0 35 19 48q16 4 28 -9l18 -24q19 -34 36 -96q19 -72 30 -97q6 -10 9 0l64 112q39 66 79 102q36 2 50 -31zM257 471q0 -17 -27 -35l-60 -40q-47 -36 -64 -36q-9 0 -9 13q0 14 26 39q5 5 45 50q22 25 42 33q10 3 28.5 -4.5t18.5 -19.5z" />
    <glyph glyph-name="ydieresis" unicode="&#xff;" 
d="M349 272q0 -62 -19 -221q-18 -145 -14 -224q10 -18 10 -26q0 -6 -3 -11q-7 -20 -39 -8q-31 38 -31 115q0 19 2 57t2 55q-1 22 5.5 73.5t6.5 65.5q0 20 -7 20q-10 1 -55 -69q-50 -79 -53 -82q-14 -11 -28 -11q-7 0 -11 3q-38 38 -62 102q-4 13 -34 116q-3 32 -3 40
q0 35 19 48q16 4 28 -9l18 -24q19 -34 36 -96q19 -72 30 -97q6 -10 9 0l64 112q39 66 79 102q36 2 50 -31zM306 412q0 -20 -13.5 -34.5t-32.5 -14.5q-20 0 -33.5 14.5t-13.5 34.5q0 19 13.5 32.5t33.5 13.5q19 0 32.5 -13.5t13.5 -32.5zM160 412q0 -20 -13.5 -34.5
t-33.5 -14.5q-19 0 -32 14.5t-13 34.5q0 19 13 32.5t32 13.5q20 0 33.5 -13.5t13.5 -32.5z" />
    <glyph glyph-name="dotlessi" unicode="&#x131;" horiz-adv-x="197" 
d="M148 52q5 -3 -10 -25.5t-27 -26.5q-5 -1 -10 -1q-17 0 -34 11t-18 19q-8 28 -8 73q0 22 3 68q2 35 0 44q-20 7 -20 29q0 10 7 17q68 68 93 68q4 0 5 -3q5 -14 5 -30t-7 -48t-7 -49q-7 -34 -7 -60q0 -58 35 -86z" />
    <glyph glyph-name="OE" unicode="&#x152;" horiz-adv-x="961" 
d="M460 117q-6 24 -6 49q0 79 65 174q-1 1 -4 1h-5q-17 3 -33.5 30.5t-17.5 55.5q-3 13 -3 28q0 49 25 89q8 13 -42.5 36.5t-88.5 18.5q-83 -12 -150.5 -78t-84.5 -151q-7 -36 -7 -71q0 -141 97 -201q49 -30 114 -30q77 0 130 40q8 6 11 9zM516 579q48 81 127 108q22 8 43 8
q29 0 71 -18q37 20 50 20q15 0 25 -13q5 -17 5 -37q0 -56 -37 -108q-17 -9 -40 -5q-55 28 -55 63q0 10 3 20q-9 26 -38 26q-8 0 -15 -3q-35 -8 -63 -40.5t-39 -70.5q2 -39 63 -76t61 -73q0 -10 -3 -22q-14 -24 -53 -66t-53 -65q-25 -38 -25 -78q0 -13 3 -27q12 -31 36 -55
q27 -27 57 -33q18 -4 37 -4q106 0 214 154q7 5 16 27q7 18 17 18q4 0 10 -3q9 -14 9 -30q0 -20 -16 -46q-15 -20 -30 -41q-89 -130 -233 -130q-35 0 -70 9q-54 14 -96 62q-9 -10 -30 -28q-81 -53 -173 -53q-68 0 -127 31q-138 73 -138 282q0 22 2 46q18 101 68 176
q55 83 140.5 116t138.5 33q50 0 96 -25q27 -14 42 -49z" />
    <glyph glyph-name="oe" unicode="&#x153;" horiz-adv-x="459" 
d="M444 83q-1 -55 -74 -89q-15 -7 -32 -7q-30 0 -68 22q-25 22 -36 42q-48 -61 -115 -57q-38 8 -69.5 38t-34.5 58q-1 11 -1 22q0 61 27.5 113.5t77.5 77.5q4 2 14 -2.5t9 -8.5q-5 -15 -22 -38q-20 -28 -24 -36q-14 -41 -14 -70q0 -15 3 -28q9 -41 65 -41q9 0 17 2
q37 7 50 58q4 51 -11 75q-4 11 -27.5 28t-23.5 30q0 6 3.5 13.5t25 21.5t39.5 14q51 -1 74 -20q28 25 73 32q9 1 27.5 -4.5t27.5 -16t9 -28.5q0 -28 -21 -66q-26 -46 -116 -78q-12 -4 -6 -17q13 -63 51 -63q10 0 22 3q29 8 61 33q10 -3 19 -13zM370 259q0 5 -5 10.5t-11 3.5
q-21 -7 -41 -40q-19 -29 -19 -46q0 -5 3 -6q17 -2 41 23.5t32 54.5z" />
    <glyph glyph-name="Scaron" unicode="&#x160;" horiz-adv-x="481" 
d="M439 599q-8 -18 -27 -18q-3 0 -5 1q-6 7 -13.5 24t-16.5 23q-9 1 -19 1q-51 0 -112 -37q-49 -34 -99 -68q-31 -29 -31 -58q0 -12 7 -21q22 -27 62 -40q24 -7 77.5 -13.5t78.5 -14.5q61 -20 84 -63q8 -24 8 -51q0 -35 -16 -81q-14 -37 -28 -73q-31 -87 -130 -158
q-31 -15 -63 -15q-30 0 -49 15q-47 39 -47 125q0 33 7 78q6 22 22 22q9 0 13 -10q-5 -57 -5 -72q0 -87 52 -116q7 -2 14 -2q25 0 58 28q59 74 59 185q0 41 -7 91q-21 52 -95 62q-60 2 -121 4q-36 12 -57 48q-19 33 -19 73q0 85 121 175q66 39 94 52q60 28 109 28
q27 0 50.5 -7.5t29.5 -31.5q16 -40 16 -64q0 -10 -2 -21zM367 879q0 -13 -26 -40q-7 -7 -42 -50q-21 -25 -39 -33q-11 -5 -16 0q-17 8 -34 33t-35 49.5t-18 36.5q0 15 9 15q20 0 53 -34q10 -10 39 -32q14 9 44 32q38 34 58 34q3 0 5 -3t2 -8z" />
    <glyph glyph-name="scaron" unicode="&#x161;" horiz-adv-x="294" 
d="M267 133q2 -9 2 -19q0 -22 -13 -52q-19 -45 -20 -48q-15 -23 -39 -48q-36 -38 -56 -36q-38 3 -59 27q-24 27 -24 74q0 20 6 62q2 1 9.5 5.5t11.5 4.5q5 0 8 -6q5 -13 5 -33q0 -6 -1 -18v-18q0 -43 32 -55q36 2 52 61q0 7 2 25t2 27q0 35 -25 43q-16 9 -58 13t-57 11
q-28 12 -32 45q-1 78 119 142q6 0 26 3.5t31 3.5q32 0 39 -26q2 -49 -24 -66q-13 1 -24 15q-38 -9 -72 -46q-2 -4 -2 -9q0 -16 18 -24q40 -8 79 -17q45 -12 64 -41zM268 492q0 -13 -26 -40q-7 -7 -42 -50q-21 -25 -39 -33q-11 -5 -16 0q-17 8 -34 33t-35 49.5t-18 36.5
q0 15 9 15q20 0 53 -34q10 -10 39 -32q14 9 44 32q38 34 58 34q3 0 5 -3t2 -8z" />
    <glyph glyph-name="Ydieresis" unicode="&#x178;" horiz-adv-x="579" 
d="M527 545q4 -56 4 -109q0 -372 -180 -602q-48 -38 -68 -38q-10 0 -20 5q-24 21 -24 61q0 20 8 60q56 167 124 233q9 0 11.5 -8t4.5 -15q-32 -64 -63 -127q-35 -76 -43 -137q2 -3 1.5 -15.5t8.5 -14.5q42 24 69 81q20 52 39 104q29 118 29 232q0 66 -10 129q-5 16 -17 16
q-4 0 -8 -4q-30 -31 -82 -97t-80 -94q-47 -48 -98 -73q-9 -3 -20 -3q-26 0 -47 16q-29 28 -37 82q-2 19 -4 92q-4 177 64 336q11 14 26 14q16 0 29.5 -15t16.5 -33q4 -29 4 -59q0 -65 -24 -164q-32 -131 -37 -162q2 -14 5 -28.5t17 -20.5q42 7 93 75q71 94 228 356
q31 19 51 9q16 -11 22 -37q3 -23 7 -45zM414 706q0 -20 -13.5 -34.5t-32.5 -14.5q-20 0 -33.5 14.5t-13.5 34.5q0 19 13.5 32.5t33.5 13.5q19 0 32.5 -13.5t13.5 -32.5zM268 706q0 -20 -13.5 -34.5t-33.5 -14.5q-19 0 -32 14.5t-13 34.5q0 19 13 32.5t32 13.5
q20 0 33.5 -13.5t13.5 -32.5z" />
    <glyph glyph-name="Zcaron" unicode="&#x17d;" horiz-adv-x="688" 
d="M654 78q0 -14 -13 -37q-16 -26 -38 -36q-7 -3 -13 -3q-8 0 -26 14.5t-38 13.5q-299 -11 -476 -115q-2 -1 -4 -1q-6 0 -11.5 6.5t-3.5 12.5q21 44 73 80q47 30 95 59q61 63 121 125q70 75 103 137l-32 -11q-37 -13 -61 -13q-14 0 -24 5q-5 4 -5 10q0 23 28 37t88 25
q54 11 56 13q37 84 37 114q0 16 -6 27q-20 25 -87 25q-105 0 -225 -53q-6 -15 -13 -31t-18 -17q-12 -2 -20.5 5t-6.5 18q2 53 9 78q13 41 46 56q128 58 270 58q45 0 89 -6q61 -9 73 -54q4 -49 -26 -113l-50 -105h43q26 -4 32 -21q3 -6 -38 -11q-55 -6 -72 -12
q-49 -62 -99 -123q-59 -73 -102 -115q-1 -11 7 -11q3 0 18 5q116 41 209 41q42 0 77 -8q14 -5 24 -26t10 -43zM537 847q0 -13 -26 -40q-7 -7 -42 -50q-21 -25 -39 -33q-11 -5 -16 0q-17 8 -34 33t-35 49.5t-18 36.5q0 15 9 15q20 0 53 -34q10 -10 39 -32q14 9 44 32
q38 34 58 34q3 0 5 -3t2 -8z" />
    <glyph glyph-name="zcaron" unicode="&#x17e;" horiz-adv-x="338" 
d="M313 203q-17 -7 -66 -19q-40 -9 -37 -12q14 -25 28 -49q17 -31 17 -54q0 -18 -9 -35q-38 -67 -99 -67q-48 0 -75 33q-10 12 -10 29q0 25 23 63q21 30 41 59q2 3 3 5q0 1 -17.5 8.5t-14.5 24.5q4 13 27 17q36 6 40 8t21.5 32.5t17.5 44.5q0 6 -4 8q-16 8 -33 8
q-22 0 -60 -19q-42 -21 -59 -24q-22 -4 -31 20q-8 56 12 65q83 37 139 38q64 0 90 -49q3 -5 3 -13q0 -17 -15 -51q-23 -51 -24 -55q0 -1 3 -1q21 0 89 15q5 0 6 -14q0 -13 -6 -16zM216 93q-7 15 -28 41q-9 7 -16 7q-12 0 -18 -19q-5 -15 -9 -29l-6 -28q0 -12 13 -21
q14 -9 39.5 3t25.5 37q0 5 -1 9zM268 529q0 -13 -26 -40q-7 -7 -42 -50q-21 -25 -39 -33q-11 -5 -16 0q-17 8 -34 33t-35 49.5t-18 36.5q0 15 9 15q20 0 53 -34q10 -10 39 -32q14 9 44 32q38 34 58 34q3 0 5 -3t2 -8z" />
    <glyph glyph-name="circumflex" unicode="&#x2c6;" horiz-adv-x="294" 
d="M256 363q-1 -2 -4 -2q-17 0 -53 35q-13 11 -38 31q-15 -9 -45 -31q-40 -35 -59 -35q-3 0 -5 3t-2 7q0 15 27 42q7 7 43 50q21 25 39 33q5 5 16 0q17 -8 33 -33q29 -44 34 -50q18 -23 18 -36q0 -8 -4 -14z" />
    <glyph glyph-name="caron" unicode="&#x2c7;" horiz-adv-x="294" 
d="M268 486q0 -13 -26 -40q-7 -7 -42 -50q-21 -25 -39 -33q-11 -5 -16 0q-17 8 -34 33t-35 49.5t-18 36.5q0 15 9 15q20 0 53 -34q10 -10 39 -32q14 9 44 32q38 34 58 34q3 0 5 -3t2 -8z" />
    <glyph glyph-name="breve" unicode="&#x2d8;" horiz-adv-x="289" 
d="M250 459q-11 -33 -43 -63q-37 -34 -72 -34q-38 0 -66.5 28.5t-30.5 68.5q-3 5 5 7l8 6q4 2 5 -6q34 -47 83 -47q27 0 58 17q24 14 36 30q5 7 9 5l8 -6q2 -1 0 -6z" />
    <glyph glyph-name="dotaccent" unicode="&#x2d9;" horiz-adv-x="172" 
d="M133 412q0 -20 -13.5 -34.5t-33.5 -14.5t-33.5 14.5t-13.5 34.5q0 19 13.5 32.5t33.5 13.5t33.5 -13.5t13.5 -32.5z" />
    <glyph glyph-name="ring" unicode="&#x2da;" horiz-adv-x="265" 
d="M222 436q0 -33 -31 -53q-27 -17 -67 -17q-37 0 -58.5 16.5t-19.5 44.5q2 31 30 50t67 19q37 0 59.5 -16.5t19.5 -43.5zM181 432q3 35 -41 35q-18 0 -34 -8q-20 -11 -21 -27q-1 -17 13.5 -27.5t30.5 -10.5q49 0 52 38z" />
    <glyph glyph-name="ogonek" unicode="&#x2db;" horiz-adv-x="195" 
d="M169 -131q0 -8 -18.5 -15t-41.5 -7q-32 0 -54 13q-27 16 -27 47q0 48 67 93h28q-31 -36 -31 -76q0 -22 12.5 -34.5t27.5 -12.5q9 0 19 2.5t12 2.5q6 0 6 -13z" />
    <glyph glyph-name="tilde" unicode="&#x2dc;" horiz-adv-x="301" 
d="M265 446q-25 -71 -70 -71q-36 0 -68 12t-36 12q-18 0 -27 -30q-2 -12 -17 -4q-13 4 -11 14q23 77 74 77q29 0 64 -13t41 -13q11 0 22 27q0 7 15 5q18 -3 13 -16z" />
    <glyph glyph-name="hungarumlaut" unicode="&#x2dd;" horiz-adv-x="328" 
d="M313 477q0 -17 -26 -35q-31 -20 -61 -40q-48 -36 -64 -36q-9 0 -9 14t26 38q9 8 45 50q22 26 42 33q9 3 28 -4.5t19 -19.5zM191 477q0 -17 -27 -35l-60 -40q-48 -36 -65 -36q-9 0 -9 13q0 14 26 39q7 7 45 50q22 25 42 33q11 3 29.5 -4.5t18.5 -19.5z" />
    <glyph glyph-name="endash" unicode="&#x2013;" horiz-adv-x="655" 
d="M606 203h-553v61h553v-61z" />
    <glyph glyph-name="emdash" unicode="&#x2014;" horiz-adv-x="883" 
d="M823 203h-757v61h757v-61z" />
    <glyph glyph-name="quoteleft" unicode="&#x2018;" horiz-adv-x="218" 
d="M163 722q0 -1 -25.5 -24t-33.5 -50q4 -3 12 -10q15 -17 15 -39q0 -17 -9 -31q-11 -23 -42 -23t-44.5 21t-10.5 41q8 61 59 94q37 25 70 25q9 3 9 -4z" />
    <glyph glyph-name="quoteright" unicode="&#x2019;" horiz-adv-x="218" 
d="M162 664q-7 -61 -58 -94q-37 -24 -70 -24q-10 -3 -10 3q0 2 26.5 25.5t34.5 49.5q-5 3 -13 10q-15 17 -15 39q0 17 9 31q11 22 41 22q31 0 45 -21t10 -41z" />
    <glyph glyph-name="quotesinglbase" unicode="&#x201a;" horiz-adv-x="218" 
d="M167 44q-9 -64 -62 -99q-39 -26 -74 -26q-10 -4 -10 3q0 2 27.5 26.5t36.5 52.5q-5 3 -14 9q-15 18 -15 41q0 18 10 34q11 24 43 24t47 -24q14 -17 11 -41z" />
    <glyph glyph-name="quotedblleft" unicode="&#x201c;" horiz-adv-x="328" 
d="M289 722q0 -1 -26.5 -24t-34.5 -50q4 -3 12 -10q15 -18 15 -40q0 -16 -9 -30q-10 -22 -41 -22t-45 21t-10 40q7 61 58 94q37 25 70 25q11 3 11 -4zM165 722q0 -2 -25 -23q-28 -24 -36 -51q5 -3 13 -10q15 -18 15 -40q0 -16 -9 -30q-11 -23 -42 -23t-44.5 21t-9.5 41
q7 61 58 94q37 25 70 25q10 3 10 -4z" />
    <glyph glyph-name="quotedblright" unicode="&#x201d;" horiz-adv-x="328" 
d="M286 664q-7 -60 -58 -94q-37 -24 -70 -24q-11 -3 -11 3q0 2 26.5 25.5t33.5 49.5q-4 3 -11 10q-15 17 -15 39q0 17 9 31q10 23 40 23q31 0 46 -23q15 -18 10 -40zM162 664q-7 -61 -58 -94q-37 -24 -70 -24q-10 -3 -10 3q0 2 26.5 25.5t34.5 49.5q-5 3 -13 10
q-15 17 -15 39q0 17 9 31q11 22 41 22q31 0 45 -21t10 -41z" />
    <glyph glyph-name="quotedblbase" unicode="&#x201e;" horiz-adv-x="360" 
d="M314 44q-9 -64 -62 -99q-38 -26 -72 -26q-12 -4 -12 3q0 2 28 26.5t36 52.5q-3 2 -14 9q-15 18 -15 41q0 19 10 34q11 24 42 24q33 0 49 -24q13 -19 10 -41zM167 44q-9 -64 -62 -99q-39 -26 -74 -26q-10 -4 -10 3q0 2 27.5 26.5t36.5 52.5q-5 3 -14 9q-15 18 -15 41
q0 18 10 34q11 24 43 24t47 -24q14 -17 11 -41z" />
    <glyph glyph-name="dagger" unicode="&#x2020;" horiz-adv-x="240" 
d="M221 292q4 -22 -11 -50q-11 -13 -36.5 -14t-33.5 -9q3 -36 3 -83q0 -143 -24 -143q-25 0 -41 225q-7 8 -37.5 12.5t-34.5 18.5q-2 5 -2 10q0 29 26 37q4 2 16 0q17 -2 22 -2q19 0 17 15q-7 30 -7 69q0 44 11 60q1 2 6 2q11 0 30.5 -10.5t21.5 -21.5q5 -14 5 -29
q0 -9 -3.5 -33.5t-3.5 -45.5q6 -3 15 -3q8 0 24.5 4.5t21.5 4.5q13 0 15 -14z" />
    <glyph glyph-name="daggerdbl" unicode="&#x2021;" horiz-adv-x="798" 
d="M747 103q0 -31 -18.5 -50.5t-48.5 -19.5h-560q-27 0 -48 19.5t-21 46.5v526q0 28 21 46.5t48 18.5h560q31 0 49 -18t18 -47v-522zM480 -124q0 -23 -34 -23q-25 0 -34 22l-28 71v-92h-38v100q0 26 31 26q30 0 38 -20l28 -73v90h37v-101zM747 -121q0 -20 -34 -25h-86v28h72
q7 0 7 7v9q0 4 -8 4h-33q-38 0 -38 27v31q0 17 39 17h81v-25h-71q-10 0 -10 -6v-9q1 -7 12 -7h32q37 0 37 -24v-27zM615 -48h-40v-98h-40v98h-41v25h121v-25zM321 -118q0 -28 -41 -28h-47q-35 0 -40 21v82q5 20 40 20h47q41 0 41 -25v-70zM172 -98h-78v-48h-42v99q0 11 4 16
v0q7 8 38 8h78v-25h-67q-11 0 -11 -6v-16h78v-28zM715 107v518q0 33 -35 33h-560q-35 0 -35 -33v-521q0 -35 35 -35h560q35 0 35 38zM282 -111v52q0 11 -13 11h-26q-12 0 -12 -11v-51q0 -8 12 -8h26q13 0 13 7zM666 121h-130v257l-163 -160l-158 160v-257h-82v483h45
l209 -205l206 205h73v-483zM635 154v421h-31l-217 -218l-224 218v-421h19v302l191 -195l193 195v-302h69z" />
    <glyph glyph-name="bullet" unicode="&#x2022;" horiz-adv-x="437" 
d="M369 355q1 -62 -43.5 -107.5t-105.5 -45.5q-63 0 -108.5 44t-45.5 105q0 64 43 108.5t105 44.5q63 0 108.5 -43.5t46.5 -105.5z" />
    <glyph glyph-name="ellipsis" unicode="&#x2026;" horiz-adv-x="688" 
d="M602 85q12 -15 12 -35q0 -25 -16.5 -40t-39.5 -15t-41 15q-15 20 -15 43q0 18 9 32q12 24 43 24q32 0 48 -24zM374 85q13 -15 13 -35q0 -25 -16.5 -40t-39.5 -15t-41 15q-15 19 -15 42q0 18 9 33q12 24 43 24q32 0 47 -24zM147 85q12 -14 12 -34q0 -25 -16.5 -40.5
t-39.5 -15.5t-39.5 16.5t-16.5 40.5q0 18 10 33q11 24 43 24t47 -24z" />
    <glyph glyph-name="perthousand" unicode="&#x2030;" horiz-adv-x="655" 
d="M399 518q7 -5 7 -12q0 -14 -25 -34q-24 -37 -117 -197q-116 -199 -147 -273q-10 -24 -31 -24q-8 0 -12 7q-7 10 -2 36q149 295 275 464q-87 7 -128 7q-33 0 -29 -5q29 -35 29 -90q0 -42 -16 -81q-30 -56 -73 -56q-40 0 -78 34q-25 28 -25 77q0 42 17 94q11 24 36 40.5
t50 16.5q11 0 24 -9q92 16 179 16q56 0 66 -11zM404 45q-9 -18 -26 -35q-24 -22 -47 -22q-42 0 -76 35q-28 28 -28 79q0 44 19 89q10 26 34.5 42.5t50.5 15.5q29 -1 59.5 -36t30.5 -91q0 -41 -17 -77zM161 459q-16 29 -27 25q-63 -33 -63 -130q0 -10 0.5 -20.5t11.5 -26.5
t26 -16q22 0 37 25q28 32 28 85q0 33 -13 58zM362 187q-17 31 -26 25q-69 -38 -63 -151q1 -10 12 -26t24 -16q22 0 39 27q27 33 27 85q0 32 -13 56zM620 45q-8 -18 -26 -35q-24 -22 -47 -22q-43 0 -76 35q-27 29 -27 79q0 43 18 89q10 26 34.5 42.5t50.5 15.5
q29 -1 59.5 -36t30.5 -90q0 -41 -17 -78zM578 187q-19 29 -25 25q-70 -38 -64 -151q1 -10 11.5 -26t24.5 -16q25 0 38 27q27 32 27 84q0 33 -12 57z" />
    <glyph glyph-name="fraction" unicode="&#x2044;" horiz-adv-x="531" 
d="M505 615l-425 -768h-67l424 768h68z" />
    <glyph glyph-name="trademark" unicode="&#x2122;" horiz-adv-x="896" 
d="M354 639q-8 -21 -17 -20q-35 3 -68 3q-102 0 -181 -27q-4 -2 -4 -8q-1 -5 2 -6q12 -5 12 -16q0 -13 -24 -13q-16 0 -28 12t-12 43q0 20 5 31q23 37 116 37q161 0 100 1q59 -1 94 -13q11 -7 5 -24zM863 303q-7 -34 -19 -38q-36 -4 -49 13q-14 13 -15 35t-2 43
q10 145 10 135q0 25 -3 46q-6 12 -23 24q-24 5 -53 -46q-10 -18 -57 -118q-34 -72 -67 -111q-5 -2 -15 8q-1 42 21 118t22 117q-14 11 -22 6q-43 -50 -82 -144q-50 -125 -65 -151q-2 -4 -8 -7q-7 -3 -9 2.5t-7 17.5q12 62 25 124q14 74 14 127q0 34 -5 65q-1 5 -10 13
q-9 -3 -15.5 -25.5t-16.5 -22.5q-6 0 -16.5 7t-14.5 10q-7 7 -8 15q1 42 5 57q6 31 28 41q23 -2 46 -20t30 -42q9 -42 0 -173q0 -2 3 -4l52 84q33 48 69 65q3 -3 13.5 -3t13.5 -5q9 -14 9 -36q0 -9 -2.5 -30t-1.5 -32q23 21 70 94q39 63 79 85q11 3 34 -9q29 -42 29 -105
q0 -27 -6.5 -81t-6.5 -80q0 -18 2 -34q0 -10 12.5 -15.5t11.5 -19.5zM301 286q-5 -33 -9 -44q-8 -24 -25 -36q-8 -6 -31 -2q-24 15 -33 47q-3 12 -8 58q16 181 56 258q8 10 22 14q8 1 16 -3.5t8 -10.5q-1 -30 -11 -75q-16 -69 -17 -75q-19 -110 -27 -172q-1 -3 7 -16
q6 0 12.5 8.5l6.5 8.5q3 24 17 67q18 0 18 -19q0 -4 -2 -8z" />
    <glyph glyph-name="infinity" unicode="&#x221e;" horiz-adv-x="1168" 
d="M1130 643q-3 -8 -18 -15l-25 -11q-11 -5 -115 -62q-69 -38 -121 -52q-8 -1 -22.5 2.5t-20.5 3.5q-9 0 -16 -5q5 -4 16.5 -4t16.5 -3q-2 -7 -12 -7q-13 -1 -16 -4q16 -3 46 -14q-26 -7 -52 -15q-30 -9 -39 -31q-8 -8 -37 -21q-25 -12 -35 -26q-51 -32 -54 -34
q-33 -18 -61 -18q-10 0 -20 2q-7 -1 -15 -2.5t-11 -7.5q12 -4 38 -3.5t39 -3.5q-2 -4 -30 -15q-80 -74 -96 -86q-59 -44 -120 -53q5 -3 12 -3q6 0 19 4.5t20 4.5q6 0 12 -3q-2 -5 -13.5 -9t-14.5 -8q-13 -9 -28 -9q-9 0 -26 4t-24 4q-10 0 -18 -4q0 -1 1.5 -1.5t28.5 -2.5
q18 -2 28 -12q-26 -9 -41 -11q-2 -2 -2 -4t4.5 -4t4.5 -3q-10 -4 -21 -4q-22 0 -42 14q-18 -12 -37 -37q-15 -21 -31 -43q-1 -32 -30 -53l-52 -34q-19 -13 -55 -45q-6 -3 -9 4q3 11 66 89q69 84 110 122q1 4 1 10t-2 18.5t-2 18.5q0 8 2 13q5 -4 10 -17.5t11 -17.5q2 4 2 9
q0 6 -6 25t-4 28q-4 12 4 33q4 0 8 -7t9 -6q0 27 28 56q33 34 38 52q7 6 31 44q19 29 42 34q0 -3 -3.5 -9.5t-3.5 -9.5q0 -4 3 -6q-8 -11 -8 -27q0 -7 2.5 -23.5t1.5 -24.5q10 4 15 41q-4 5 -4 11t20 43q3 13 21 17t22 18q11 -3 22 13t17 16q4 0 9 -4q6 2 19 20q10 14 23 12
q9 10 19 21t22 9q9 4 12 12q6 16 6 17q7 -4 7.5 -21.5t6.5 -17.5q3 0 7 2q1 14 14 29q17 19 21 29q7 0 5 -7q1 -4 9 1q9 12 29 31q-2 -2 -6 -9.5t-7 -10.5q9 1 36 26q12 -1 21.5 9.5t17.5 19.5q4 -2 4 -8q0 -2 -1 -6.5t-1 -5.5q0 -6 9 -4q13 22 36 34q1 -1 1 -2
q0 -2 -2.5 -7t-2.5 -7q0 -4 7 -4q13 10 37 27q5 6 26 13q-7 -4 -19 -16q14 0 31.5 13.5t26.5 15.5q-5 -4 -17 -14q5 -2 9 -2q8 0 21 9t22 9q1 -1 -3 -3t-4 -5q8 0 21 7.5t20 7.5q5 0 9 -2q-6 0 -15 -9q-2 0 26 -1q15 0 25 8q4 -1 3.5 -5.5t4.5 -5.5q1 -2 -3 -7t-4 -6
q0 -2 7 -2q9 4 19 7.5t19 1.5q2 -2 0 -5q-2 -4 -1 -6q11 0 30.5 -5.5t28.5 -5.5zM931 604q-15 -4 -129 -49q-129 -51 -300 -184q-125 -97 -232 -219q0 -10 8 -2q42 43 136 125q139 121 234 187q38 26 124 70q55 25 159 72z" />
    <glyph glyph-name="apple" unicode="&#xf000;" horiz-adv-x="589" 
d="M442 712q-46 -55 -91 -110q-55 -62 -68 -62q-15 0 -15 22q0 37 17 57q29 34 76 57q40 18 81 36zM555 376q-10 -5 -18 -5q-20 0 -38 32q-24 44 -27 47q-34 32 -64 29q-46 -5 -103 -44q-12 -9 -30 -9q-25 0 -41 14q-48 40 -84 38q-63 -3 -63 -86q0 -38 11 -69
q5 -14 26.5 -44t28.5 -51q9 -43 19 -86q14 -61 37 -61q25 0 47.5 32.5t40.5 32.5q17 0 41.5 -19.5t35.5 -19.5q6 0 12 4q46 28 73 83q1 2 3 2q7 0 21 -12t16 -21q0 -1 -1.5 -2.5t-2.5 -3.5q-24 -26 -48 -53q-27 -32 -40 -58q-5 -12 -25 -30q-7 -3 -13 -3q-14 0 -33 19
q-22 23 -31 27q-41 10 -58 -6q-11 -17 -35 -35q-29 -22 -46 -19q-27 5 -38 46q-7 25 -11 84q-3 54 -9 68q-11 29 -35.5 66.5t-36.5 69.5q-9 25 -9 57q0 92 53 117q35 17 69 17q21 0 36 -8q53 -27 91 -27q37 0 69.5 23t79.5 23q35 0 66 -13q43 -18 61 -85q10 -22 10 -50
q0 -16 -7 -11z" />
    <glyph glyph-name="fi" unicode="&#xf001;" horiz-adv-x="251" 
d="M236 296q2 -38 -37 -58q-13 -7 -56 -11q-8 -1 -8 -6q0 1 11 -29q47 -133 47 -262q0 -38 -4 -74q-4 -18 -16 -41q-16 -29 -32 -36q-3 -2 -8 -2q-16 0 -37 16.5t-24 28.5q-14 57 -14 130q0 43 7 132.5t7 133.5q0 3 -16 10q-22 9 -27 12q-18 11 -18 31q0 6 2 13
q5 17 20 18.5t28 1.5q10 2 13 11q6 84 12 169q10 94 53 148q9 9 22 9q14 0 25.5 -8t12.5 -15q3 -12 3 -26q0 -31 -20 -90q-12 -34 -21 -91q-12 -78 -15 -92q-1 -6 23 -6q5 1 23 6q15 5 23 5q20 0 21 -28zM139 -147q15 47 15 107q0 65 -20 165q-6 17 -10 17q-2 0 -2 -2
q-13 -68 -13 -151q0 -55 6 -108q1 -9 8 -20.5t12 -11.5q3 0 4 4zM352 469q6 -25 -15 -47q-11 -9 -23 -9t-25 8q-17 10 -17 45q3 11 17.5 20t26.5 9q26 0 36 -26zM352 52q5 -3 -10 -25.5t-27 -26.5q-5 -1 -10 -1q-17 0 -34 11t-18 19q-8 28 -8 73q0 22 3 68q2 35 0 44
q-20 7 -20 29q0 10 7 17q68 68 93 68q4 0 5 -3q5 -14 5 -30t-7 -48t-7 -49q-7 -34 -7 -60q0 -58 35 -86z" />
    <glyph glyph-name="fl" unicode="&#xf002;" horiz-adv-x="415" 
d="M142 -147q15 47 15 108q0 65 -19 164q-8 17 -11 17q-2 0 -3 -2q-12 -67 -12 -149q0 -56 6 -110q1 -9 8 -20.5t12 -11.5q3 0 4 4zM241 334q28 29 36 89q11 78 19 97q11 66 56 79q37 -22 37 -80q0 -38 -21 -86l-38 -82q-13 -140 -13 -166q0 -60 13 -107q5 -19 39 -36
q31 -15 31 -30q0 -11 -12.5 -28t-35.5 -17q-15 0 -54 14q-32 11 -43 47q-7 20 -8 67q-2 64 9 167q-20 -6 -57 -22q-18 -10 -53 -13q-7 -1 -7 -6q0 2 11 -29q47 -128 47 -257q0 -41 -5 -79q-2 -16 -16 -41q-16 -29 -32 -36q-4 -2 -9 -2q-15 0 -36 16.5t-24 28.5
q-14 56 -14 130q0 43 7 132.5t7 133.5q0 3 -16 10q-22 9 -27 12q-18 11 -18 31q0 7 2 13q6 17 22 19q13 1 27 1q8 2 13 11q5 84 11 169q10 94 53 148q9 9 22 9t25.5 -8t13.5 -15q3 -12 3 -26q0 -42 -21 -90q-11 -35 -20 -91q-8 -46 -15 -92q-2 -6 7 -7q-15 1 16 1
q24 3 68 21z" />
    <glyph glyph-name="glyph208" horiz-adv-x="500" 
 />
    <glyph glyph-name=".null" horiz-adv-x="240" 
 />
  </font>
</defs>
</svg>
